<svg width="211" height="82" xmlns="http://www.w3.org/2000/svg">
    <!-- Generator: Sketch 39.1 (31720) - http://www.bohemiancoding.com/sketch -->
    <title>Group 17 Copy 3</title>
    <desc>Created with Sketch.</desc>
    <defs>
        <polygon points="0.290046278 11.6698586 12.0597722 11.6698586 12.0597722 0.0621419973 0.290046278 0.0621419973" id="path-1"/>
    </defs>
    <g>
        <title>background</title>
        <rect fill="none" id="canvas_background" height="84" width="213" y="-1" x="-1"/>
    </g>
    <g>
        <title>Layer 1</title>
        <g fill-rule="evenodd" fill="none" id="Symbols">
            <g id="footer">
                <g id="Group-17-Copy-3">
                    <path fill="#FFFFFF" id="Fill-2" d="m61.80258,41.90365c0,7.31883 -4.73599,11.0437 -11.56191,11.0437c-6.82556,0 -11.56081,-3.72487 -11.56081,-11.0437l0,-15.90273l5.36793,0l0,15.63834c0,4.34884 2.49261,6.25905 6.19288,6.25905c3.70064,0 6.19325,-1.91021 6.19325,-6.25905l0,-15.63834l5.36866,0l0,15.90273z"/>
                    <path fill="#FFFFFF" id="Fill-4" d="m82.14561,41.46932l0,6.35314l6.00134,0.01969c2.95223,0 4.81217,-0.68159 4.81217,-3.21468c0,-2.47765 -1.85994,-3.15815 -4.81217,-3.15815l-6.00134,0zm0,-10.81614l0,6.1832l5.4833,0c2.66529,0 4.73599,-0.54812 4.73599,-3.12023c0,-2.49625 -2.10916,-3.06297 -4.75522,-3.06297l-5.46407,0zm5.61752,-4.65226c6.25056,0 10.1812,2.28839 10.1812,7.33706c0,2.66656 -1.64879,4.80287 -3.89218,5.61685c2.45415,0.81251 4.4668,3.0823 4.4668,5.93704c0,5.08696 -3.66144,7.58322 -10.10392,7.58322l-11.61886,0l0,-26.47417l10.96696,0z"/>
                    <path fill="#FFFFFF" id="Fill-6" d="m117.8842,41.46932l0,6.35314l6.00134,0.01969c2.95297,0 4.8129,-0.68159 4.8129,-3.21468c0,-2.47765 -1.85993,-3.15815 -4.8129,-3.15815l-6.00134,0zm0,-10.81614l0,6.1832l5.48403,0c2.66529,0 4.736,-0.54812 4.736,-3.12023c0,-2.49625 -2.10953,-3.06297 -4.75448,-3.06297l-5.46555,0zm5.61789,-4.65226c6.25093,0 10.18157,2.28839 10.18157,7.33706c0,2.66656 -1.6488,4.80287 -3.89218,5.61685c2.45415,0.81251 4.4668,3.0823 4.4668,5.93704c0,5.08696 -3.66144,7.58322 -10.10355,7.58322l-11.61923,0l0,-26.47417l10.96659,0z"/>
                    <polygon points="167.81246948242188,52.474979400634766 148.27464294433594,52.474979400634766 148.27464294433594,26.000808715820312 153.62335205078125,26.000808715820312 153.62335205078125,47.53862762451172 167.81246948242188,47.53862762451172 " fill="#FFFFFF" id="Fill-8"/>
                    <polygon points="200.7340545654297,52.474979400634766 180.67892456054688,52.474979400634766 180.67892456054688,26.000808715820312 200.58023071289062,26.000808715820312 200.58023071289062,30.84161376953125 186.02761840820312,30.84161376953125 186.02761840820312,36.70425796508789 199.9102020263672,36.70425796508789 199.9102020263672,41.54506301879883 186.02761840820312,41.54506301879883 186.02761840820312,47.63417434692383 200.7340545654297,47.63417434692383 " fill="#FFFFFF" id="Fill-10"/>
                    <path fill="#FFFFFF" id="Fill-15" d="m122.23944,0.26038c-2.38094,0 -4.31113,1.90365 -4.31113,4.25184c0,2.34856 1.93019,4.25221 4.31113,4.25221c2.38094,0 4.31113,-1.90365 4.31113,-4.25221c0,-2.34819 -1.93019,-4.25184 -4.31113,-4.25184"/>
                    <polygon points="18.336090087890625,26.000774383544922 18.336090087890625,36.66629409790039 5.413055419921875,36.66629409790039 5.413055419921875,26.000774383544922 0.063995361328125,26.000774383544922 0.063995361328125,52.47494125366211 5.413055419921875,52.47494125366211 5.413055419921875,41.582950592041016 18.336090087890625,41.582950592041016 18.336090087890625,52.47494125366211 23.685531616210938,52.47494125366211 23.685531616210938,26.000774383544922 " fill="#FFFFFF" id="Fill-1"/>
                    <path mask="url(#mask-2)" fill="#FFFFFF" id="Fill-12" d="m50.24119,69.71661c-3.25026,0 -5.88486,2.59837 -5.88486,5.80393c0,3.2052 2.6346,5.80393 5.88486,5.80393c3.24989,0 5.88486,-2.59873 5.88486,-5.80393c0,-3.20556 -2.63497,-5.80393 -5.88486,-5.80393"/>
                </g>
            </g>
        </g>
        <g stroke="null" id="svg_6">
            <circle stroke="#FFF" transform="matrix(0.05297318151320005,0,0,0.05297318151320005,83.63863081954497,3.2832778863580945) " id="svg_4" stroke-width="20" fill="none" r="88.5" cy="332.52078" cx="2306.21416"/>
            <path stroke="null" id="svg_5" d="m205.52008,20.47418c0.29135,0 0.50325,-0.05827 0.63038,-0.16951c0.12714,-0.10595 0.196,-0.28606 0.196,-0.54033c0,-0.24897 -0.06887,-0.42379 -0.196,-0.53503c-0.12714,-0.10595 -0.33903,-0.15892 -0.63038,-0.15892l-0.5933,0l0,1.40379l0.5933,0m-0.5933,0.96941l0,2.06595l-1.40909,0l0,-5.46154l2.15071,0c0.72044,0 1.24487,0.12184 1.5786,0.36551c0.33903,0.23838 0.50325,0.61979 0.50325,1.14422c0,0.36022 -0.08476,0.65687 -0.25957,0.88995c-0.17481,0.22778 -0.43438,0.4026 -0.7893,0.50854c0.196,0.04768 0.36551,0.14832 0.51914,0.30195c0.15362,0.15362 0.30724,0.3867 0.46087,0.70454l0.76811,1.54682l-1.49914,0l-0.66746,-1.35611c-0.13243,-0.27016 -0.27016,-0.46087 -0.40789,-0.55622c-0.13773,-0.10065 -0.32314,-0.15362 -0.55092,-0.15362l-0.3973,0" fill="#FFF"/>
        </g>
    </g>
</svg>