<?xml version="1.0" encoding="utf-8"?>
<!-- Generator: Adobe Illustrator 19.0.0, SVG Export Plug-In . SVG Version: 6.00 Build 0)  -->
<svg version="1.1" id="Layer_1" xmlns="http://www.w3.org/2000/svg" xmlns:xlink="http://www.w3.org/1999/xlink" x="0px" y="0px"
	 viewBox="0 0 200 120" style="enable-background:new 0 0 200 120;" xml:space="preserve">
<style type="text/css">
	.st0{fill:#EDEEF1;}
	.st1{fill:#FFFFFF;}
	.st2{fill:#505A78;}
	.st3{fill:none;stroke:#8E94A8;stroke-width:2;stroke-miterlimit:10;}
	.st4{fill:#B2D8F7;}
</style>
<g>
	<g>
		<g id="XMLID_18_">
			<path id="XMLID_19_" class="st0" d="M121.42,92.94V37.45c0-0.92-0.74-1.66-1.66-1.66h-9.02V94.6h9.02
				C120.67,94.6,121.42,93.86,121.42,92.94z"/>
			<path id="XMLID_20_" class="st0" d="M120.91,93.22c-0.03,0.11-0.09,0.21-0.15,0.31c-0.05,0.1-0.27,0.34-0.45,0.42
				c-0.22,0.11-0.38,0.14-0.7,0.13c-1.3-0.02-2.59-0.04-3.79-0.06c-1.2-0.02-2.31-0.04-3.27-0.05c-0.36-0.01-0.69-0.01-0.98-0.02
				c-0.06-0.01-0.15,0.02-0.16-0.03c0-0.06,0-0.11,0.01-0.16c0-0.6,0.01-0.78,0.01-0.94c0.04-4.55,0.09-8.86,0.13-13.09
				c0.01-4.38,0.03-8.66,0.04-13.04c0.01-4.22-0.16-8.53-0.11-13.06c0.04-3.42,0.24-6.86,0.26-10.34c0.01-1.29-0.02-2.59-0.05-3.89
				c-0.01-1.16-0.12-3.13-0.06-2.76l0.1-0.01l0.6-0.01l1.29-0.01c1.73,0,3.46-0.01,5.19-0.01l0.65,0l0.31,0
				c0.06,0,0.11,0.01,0.17,0.02c0.22,0.04,0.42,0.18,0.54,0.37c0.06,0.09,0.11,0.2,0.13,0.31c0.01,0.06,0.02,0.11,0.02,0.17l0,0.32
				l0,1.29c-0.03,3.49-0.06,6.73-0.09,10.14c0.04,3.29,0.08,7.4,0.13,11.31c0.02,3.91,0.03,7.82,0.05,11.1
				c0.01,2.24,0.02,7.32,0.03,12.5c0.02,2.64,0.08,5.59,0.13,7.77c0.03,0.46,0.05,0.78,0.07,1.06h1.07c0-0.21,0.01-0.49,0.01-1.06
				c0-2.19,0-6.46-0.01-10.36c0.01-6.67,0.03-13.18,0.03-14.32c0.01-4.01,0.01-7.78,0.02-11.43c0.02-3.9,0.03-7.67,0.05-11.42
				c-0.01-1.88-0.02-3.76-0.04-5.66l0-0.71c-0.01-0.26,0.01-0.41-0.02-0.79c-0.08-0.66-0.46-1.27-1.01-1.64
				c-0.28-0.18-0.59-0.31-0.92-0.36c-0.37-0.05-0.58-0.02-0.82-0.03c-0.48,0-0.97,0-1.45,0c-2.35-0.03-4.74-0.07-7.33-0.1
				l-0.47-0.01c-0.05-0.02-0.06,0.02-0.05,0.07l0,0.12l0,0.23c0,0.32-0.01,0.64-0.01,0.96c-0.01,0.42-0.02,0.85-0.02,1.29
				c-0.01,0.77-0.03,1.56-0.04,2.37c-0.06,4.1,0.01,8.25-0.01,12.39c-0.03,4.12-0.05,8.24-0.08,12.37
				c0.01,4.13,0.18,8.25,0.18,12.37c0,4.14-0.27,8.25-0.27,12.36c0.01,0.92,0.02,2.06,0.05,4.9c0,0.13,0.01,0.32,0.01,0.55
				c0,0.12,0,0.25,0.01,0.39l0,0.11c0,0.04,0.07,0.01,0.1,0.02c0.08,0,0.16,0,0.25,0c0.55-0.01,1.25-0.02,2.08-0.03
				c1.05-0.01,2.43-0.03,4.01-0.05c0.86-0.02,1.72-0.03,2.59-0.05l0.65-0.02c0.18-0.01,0.51,0,0.83-0.09
				c0.62-0.16,1.15-0.58,1.46-1.12c0.19-0.39,0.25-0.83,0.22-1.23h-1.07C120.94,93.03,120.93,93.13,120.91,93.22z"/>
		</g>
		<g id="XMLID_73_">
			<path id="XMLID_46_" class="st1" d="M79.45,35.79"/>
		</g>
		<g id="XMLID_72_">
			<path id="XMLID_43_" class="st1" d="M43.8,35.79c-0.92,0-1.66,0.74-1.66,1.66v65.37c0,0.37,0.45,0.56,0.71,0.29l8.03-8.03
				c0.31-0.31,0.74-0.49,1.18-0.49h65.17c0.92,0,1.66-0.74,1.66,0.14V39.26c0-2.72-0.74-3.47-1.66-3.47H43.8z"/>
		</g>
		<g id="XMLID_2_">
			<path id="XMLID_3_" class="st0" d="M91.27,75.43H79.06c-1.1,0-1.99-0.89-1.99-1.99V18.76c0-1.1,0.89-2,1.99-2h12.21V75.43z"/>
			<path id="XMLID_17_" class="st0" d="M91.74,75.03c0.08-5.23,0.17-11.27,0.2-13.63c0.04-4.77,0.09-9.29,0.13-13.71
				c0.01-4.59,0.03-9.08,0.04-13.66c0.01-4.42-0.16-8.93-0.11-13.68l0.03-1.98l0.03-1.3l0.01-0.91c0-0.07,0.01-0.16,0-0.22l-0.22,0
				l-0.45-0.01l-2.22-0.06l-1.71-0.05c-1.14-0.03-2.29-0.06-3.44-0.06c-0.9-0.01-1.81,0-2.71,0.02l-1.36,0.03
				c-0.47,0.04-0.82-0.04-1.56,0.11c-1.31,0.3-2.25,1.62-2.18,2.88l0.03,2.72c0.01,3.63,0.02,7.25,0.03,10.85
				c-0.03,3.66-0.06,7.05-0.09,10.63c0.04,3.45,0.08,7.76,0.13,11.85c0.02,4.09,0.03,8.19,0.05,11.63c0,1.17,0.01,3.09,0.01,5.4
				c0,0.29,0,0.58,0,0.88l0,0.45l0,0.23c0.01,0.1,0.01,0.21,0.02,0.31c0.09,0.83,0.61,1.63,1.38,2.04c0.38,0.21,0.83,0.32,1.27,0.33
				c0.33,0,0.67,0,1,0c0.67,0,1.35-0.01,2.02-0.01c2.77-0.02,5.86-0.08,8.14-0.13c0.46-0.03,0.78-0.05,1.06-0.07v-1.07
				c-0.21,0-0.49-0.01-1.06-0.01c-2.3,0-6.77,0-10.85,0.01l-0.32,0c-0.08,0-0.15-0.01-0.23-0.02c-0.15-0.03-0.29-0.08-0.43-0.15
				c-0.26-0.15-0.48-0.39-0.6-0.66c-0.13-0.28-0.12-0.54-0.12-1.01c0-0.42,0-0.84,0-1.25c0-1.64,0.01-3.18,0.01-4.55
				c0.01-2.73,0.01-4.73,0.02-5.33c0.01-4.2,0.01-8.15,0.02-11.98c0.02-4.09,0.03-8.03,0.05-11.97c-0.02-3.94-0.04-7.88-0.05-11.96
				c0.01-1.92,0.04-3.86,0.08-5.84c0.01-0.48,0.02-0.96,0.04-1.45c0.03-0.31,0.18-0.61,0.42-0.81c0.25-0.21,0.52-0.31,0.88-0.29
				c0.52,0.01,1.03,0.02,1.56,0.02c1.69,0.01,3.39,0.02,5.09,0.02c1.53-0.01,3.07-0.01,4.6-0.02c0.11-0.04,0.04,0.11,0.06,0.17
				l0,1.38c-0.03,4.31-0.05,8.64-0.08,12.96c0.01,4.32,0.18,8.64,0.18,12.96c0,4.34-0.27,8.64-0.27,12.95
				c0.03,2.08,0.07,5.28,0.16,11.05c0.01,1.79,0.07,3.63,0.13,5.46c0.04,0.31,0.08,0.61,0.12,0.91h1.07V75.03z"/>
		</g>
		<g id="XMLID_70_">
			<path id="XMLID_76_" class="st1" d="M93.65,75.43H81.44c-1.1,0-2-0.89-2-1.99V18.76c0-1.1,0.89-2,2-2h12.21V75.43z"/>
		</g>
		<path id="XMLID_16_" class="st2" d="M80.05,36.26c5.67,0.08,12.23,0.17,14.78,0.2c5.19,0.04,10.11,0.09,14.92,0.13
			c2.5,0.01,4.97,0.01,7.43,0.02c0.34,0,0.62,0.18,0.77,0.46c0.04,0.07,0.06,0.14,0.08,0.22c0.01,0.09,0.02,0.11,0.01,0.3l0,0.93
			c0,1.24-0.01,2.48-0.01,3.72c-0.01,4.81,0.16,9.72,0.11,14.88c-0.04,3.9-0.24,7.82-0.26,11.78c-0.01,1.23,0.01,2.46,0.03,3.69
			l0.04,1.84c0.01,0.02,0.02,0.06,0.02,0.09c-0.02,0.02-0.05,0.02-0.09,0.03c-1.39,0.03-2.95,0.06-4.4,0.06
			c-3.95,0.01-7.89,0.02-11.81,0.03c-3.98-0.03-7.67-0.06-11.56-0.09c-1.88,0.02-3.99,0.04-6.18,0.06c-0.55,0.01-1.1,0.01-1.66,0.02
			l-0.84,0.01c-0.33,0-0.45,0.01-0.59-0.03c-0.28-0.08-0.53-0.33-0.6-0.62c-0.02-0.08-0.03-0.14-0.03-0.23l0-0.42l-0.01-0.84
			c-0.02-4.46-0.03-8.91-0.05-12.66c-0.01-2.56-0.02-8.35-0.03-14.25c-0.02-3.01-0.08-6.38-0.13-8.86c-0.01-0.23-0.03-0.42-0.04-0.6
			L79.94,36L79.65,36l0,0c0.01,0-0.01-0.01,0.01,0l-0.04-0.8c-0.13-0.01-0.41,0.07-0.56,0.26c-0.08,0.09-0.15,0.21-0.19,0.35
			c-0.02,0.06-0.03,0.16-0.03,0.2l0,0.06c0,0.17,0,0.38,0,0.66c0,2.5,0,7.37,0.01,11.81c-0.01,7.6-0.03,15.02-0.03,16.32
			c-0.01,2.28-0.01,4.5-0.02,6.67c0,0.54,0,1.08,0,1.62l0,0.4c0,0.12,0,0.27,0.01,0.47c0.04,0.37,0.17,0.72,0.38,1.03
			c0.41,0.61,1.12,1.01,1.85,1.02c0.53,0,1.06,0,1.59,0c4.45,0.02,8.74,0.03,13.02,0.05c4.29-0.02,8.58-0.04,13.01-0.05
			c2.99,0.01,5.96,0.07,9.32,0.13c0.25,0,0.51,0.02,0.76,0c0.26-0.04,0.42-0.09,0.61-0.25c0.18-0.18,0.24-0.34,0.3-0.59
			c0.04-0.25,0.02-0.55,0.03-0.82c0.01-0.64,0.02-1.3,0.03-1.97c0.06-4.68-0.01-9.4,0.01-14.12c0.03-4.69,0.05-9.4,0.08-14.11
			l-0.03-3.53l-0.03-1.76l-0.02-0.88l-0.01-0.44c0-0.14,0-0.28-0.02-0.52c-0.1-0.88-0.69-1.66-1.5-1.99
			c-0.2-0.08-0.41-0.14-0.63-0.17c-0.11-0.02-0.21-0.02-0.32-0.02l-0.23,0l-0.88,0.01l-3.52,0.03c-4.72,0-9.41-0.27-14.09-0.27
			c-2.26,0.03-5.75,0.08-12.02,0.16c-1.95,0.01-3.95,0.07-5.95,0.13c-0.31,0.04-0.61,0.08-0.91,0.12l0,1.07L80.05,36.26z"/>
		<path id="XMLID_15_" class="st2" d="M119,78.04c-0.37,0.44-0.56,1.52-0.66,2.75c-0.03,2.24-0.05,4.58-0.08,6.89
			c-0.01,1.16-0.01,2.31-0.02,3.44c0,0.56,0,1.12-0.01,1.68c0.02,0.46-0.12,0.71-0.39,0.94c-0.13,0.1-0.28,0.17-0.44,0.2
			c-0.09,0.01-0.14,0.02-0.26,0.02l-0.39,0c-0.51,0-1.02,0-1.51,0c-0.98,0-1.91,0-2.77,0c-1.72,0-3.16-0.01-4.21-0.01
			c-19.03-0.11-34.94-0.02-53.87-0.17l-1.77-0.01c-0.32,0.01-0.51-0.04-1.03,0.03c-0.44,0.07-0.86,0.26-1.21,0.55
			c-0.86,0.85-1.73,1.69-2.59,2.54c-1.55,1.53-3.11,3.07-4.68,4.62c-0.02,0.03-0.08,0.07-0.08,0l0-0.06l0-0.03l0-0.41l0.01-3.59
			l0.02-7.19c0-9.58,0-19.12,0-28.39c-0.02-4.53-0.04-9.91-0.06-15.28c-0.02-2.69-0.03-5.37-0.05-7.95c0-0.32,0-0.64-0.01-0.96
			c0-0.19,0-0.26,0.01-0.33c0.01-0.07,0.03-0.15,0.07-0.22c0.13-0.28,0.42-0.46,0.73-0.46c1.22-0.01,2.4-0.02,3.53-0.03
			c4.89-0.03,21.69-0.13,28.26-0.17c1.9,0,2.6-1.4-0.21-1.4c-2.92,0-9.81,0-16.23-0.01c-4.25,0-8.36-0.01-11.58-0.01
			c-0.81,0-1.56,0-2.24,0c-0.34,0-0.67,0-0.98,0c-0.31,0.01-0.56-0.03-1.01,0.04c-0.79,0.15-1.33,0.65-1.62,1.11
			c-0.29,0.47-0.35,0.9-0.37,1.17c-0.14,22.88,0.17,40.23-0.1,62.88l-0.01,1.06l-0.01,0.87c0.01,0.32-0.03,0.69,0.04,0.96
			c0.07,0.26,0.17,0.44,0.28,0.58c0.11,0.14,0.33,0.32,0.58,0.4c0.26,0.08,0.48,0.07,0.64,0.04c0.19-0.04,0.42-0.11,0.66-0.32
			l3.52-3.46l3.02-2.99l1.51-1.5c0.33-0.33,0.37-0.26,1.27-0.27c5.68,0,11.37,0,17.06,0c11.39-0.02,22.77-0.05,34.04,0.01
			c0.47,0,4.53-0.01,9.96-0.03c0.68,0,1.38-0.01,2.09-0.01c0.36,0,0.72,0,1.09-0.01c0.14,0,0.45,0.01,0.74-0.06
			c0.29-0.06,0.56-0.17,0.81-0.32c0.5-0.3,0.9-0.78,1.11-1.33c0.1-0.28,0.16-0.58,0.16-0.87l0-0.59c-0.01-0.77-0.01-1.54-0.02-2.32
			c-0.03-3.12-0.07-6.3-0.1-9.27C119.56,79.02,119.35,77.63,119,78.04z"/>
		<g id="XMLID_67_">
			<path id="XMLID_34_" class="st3" d="M82.78,35.79"/>
		</g>
		<path id="XMLID_14_" class="st2" d="M79.32,35.7c0.37-0.44,0.56-1.52,0.66-2.75c0.07-4.61,0.1-9.64,0.11-14.05l0-0.41
			c0-0.14,0.01-0.18,0.02-0.28c0.04-0.16,0.11-0.31,0.21-0.44c0.22-0.25,0.49-0.39,0.87-0.37c1.01,0,1.96,0,2.85,0
			c1.77,0,3.26,0.01,4.34,0.01c19.61,0.11,36.01,0.02,55.51,0.17c2.43,0.02,4.86,0.04,7.31,0.05c1.22,0.01,2.45,0.01,3.68,0.02
			l0.92,0.01l0.43,0c0.07,0,0.14,0.02,0.2,0.04c0.26,0.08,0.47,0.33,0.5,0.6c-0.01,4.88-0.03,9.77-0.04,14.66c0,9.87,0,19.7,0,29.26
			c0.02,4.67,0.04,10.21,0.06,15.74c0.01,1.38,0.02,2.77,0.02,4.14l0,0.16l0,0.06c0,0.03,0.02,0.09-0.02,0.11
			c-0.04,0.02-0.06-0.02-0.09-0.05l-0.04-0.04l-0.13-0.12c-1.89-1.87-3.71-3.65-5.36-5.29c-0.27-0.27-0.59-0.58-0.94-0.92
			c-0.18-0.17-0.36-0.36-0.55-0.55l-0.15-0.15c-0.07-0.07-0.15-0.14-0.24-0.2c-0.17-0.13-0.36-0.23-0.56-0.31
			c-0.2-0.08-0.42-0.14-0.64-0.16c-0.25-0.03-0.41-0.01-0.56-0.01c-0.32,0-0.64,0-0.98,0.01c-0.67,0-1.38,0.01-2.12,0.01
			c-2.96,0.02-6.43,0.04-9.95,0.06c-4.64,0.03-9.45,0.05-12.16,0.07c-1.9,0-2.6,1.4,0.21,1.4c3.01,0,10.08,0,16.69,0.01
			c2.19,0,4.35,0,6.37,0c0.51,0,1,0,1.49,0c0.24,0,0.48,0,0.72,0c0.14,0,0.26,0.03,0.38,0.08c0.13,0.06,0.19,0.1,0.33,0.24
			c0.16,0.16,0.32,0.32,0.48,0.48c0.31,0.31,0.62,0.62,0.91,0.91c2.35,2.35,4.05,4.06,4.59,4.6c0.66,0.66,1.32,1.32,1.98,1.98
			c0.23,0.2,0.45,0.27,0.63,0.32c0.16,0.05,0.4,0.07,0.64-0.02c0.24-0.08,0.44-0.27,0.53-0.41c0.09-0.14,0.19-0.34,0.24-0.61
			c0.05-0.28,0.02-0.62,0.03-0.94l0-0.79l0-1.06c0-0.7,0-1.41,0-2.1c0-2.79,0-5.5,0-8.18c-0.01-5.35-0.02-10.53-0.04-15.69
			c-0.03-10.34-0.03-20.65,0.1-32.31c0.01-1.47,0.03-2.94,0.04-4.41c-0.04-1.14-0.93-2.18-2.06-2.4c-0.66-0.1-0.87-0.04-1.27-0.06
			l-1.09-0.01c-2.91-0.01-5.83-0.03-8.76-0.04c-5.85,0-11.71,0-17.58,0c-11.73,0.02-23.47,0.05-35.07-0.01
			c-0.49,0-4.67,0.01-10.26,0.03c-0.35,0-0.7,0-1.06,0.01l-0.56,0c-0.29,0-0.58,0.06-0.85,0.16c-0.55,0.2-1.03,0.59-1.33,1.1
			c-0.15,0.25-0.26,0.54-0.32,0.83c-0.03,0.15-0.05,0.3-0.05,0.45l0,0.32c0.01,1.54,0.02,3.13,0.03,4.73
			c0.03,3.21,0.07,6.49,0.1,9.56C78.76,34.72,78.98,36.12,79.32,35.7z"/>
		<g>
			<path id="XMLID_13_" class="st4" d="M101.43,58.2c0.28-0.15,0.57-0.53,0.72-1.12c0.16-0.58,0.14-1.34-0.14-2.1
				c-0.19-0.6-0.58-1.18-1.06-1.6l0,0l0,0c-0.67-0.63-1.46-0.89-1.86-1.01c-1.59-0.49-3.27-0.01-4.39,1.03
				c-0.96,0.92-1.83,1.78-2.88,2.7c-0.51,0.46-1.02,0.92-1.54,1.39c-0.63,0.61-1.12,1.4-1.34,2.26c-0.49,1.72,0.09,3.68,1.38,4.85
				l0,0l0,0l0.03,0.02c0.61,0.58,1.54,1.07,2.53,1.21c0.98,0.15,1.98-0.04,2.71-0.38c0.37-0.16,1.12-0.6,1.66-1.23
				c0.5-0.54,1.04-1.13,1.47-1.59c0.55-0.56,0.93-0.95,1.21-1.23c1.51-1.51,0.95-3.19-1.28-0.95c-0.21,0.21-0.51,0.51-1.05,1.05
				c-0.26,0.26-0.58,0.58-0.93,0.93c-0.34,0.33-0.74,0.76-1,0.95c-0.6,0.48-1.27,0.57-1.4,0.58c-1.01,0.1-1.92-0.24-2.56-0.81l0,0
				l0,0c-0.52-0.48-0.87-1.12-0.94-1.84c-0.07-0.71,0.14-1.47,0.65-2.03c0.1-0.12,0.22-0.22,0.33-0.32l0.45-0.4l0.91-0.84
				c0.6-0.57,1.18-1.16,1.76-1.75l0.87-0.89l0.21-0.22l0.16-0.15c0.12-0.09,0.23-0.19,0.36-0.26c0.5-0.32,1.13-0.43,1.71-0.35
				c0.06,0.02,0.89,0.04,1.62,0.62l0,0l0,0c0.33,0.24,0.62,0.56,0.84,0.9C101.44,56.98,100.87,58.47,101.43,58.2z"/>
			<path id="XMLID_12_" class="st4" d="M97.61,51.44c0.64-0.06,1.65-0.76,2.71-1.66c0.48-0.36,0.96-0.8,1.37-1.2
				c0.2-0.2,0.39-0.38,0.56-0.54c0.15-0.14,0.25-0.24,0.36-0.3c1.36-0.93,3.17-0.74,4.16,0.45l0,0l0,0c0.21,0.25,0.4,0.57,0.5,0.92
				c0.28,0.92,0.12,1.93-0.41,2.68c-0.15,0.2-0.25,0.32-0.49,0.54L105.7,53c-0.44,0.45-0.88,0.9-1.31,1.34
				c-0.42,0.43-0.91,0.96-1.39,1.49c-0.53,0.58-0.83,0.96-1.24,1.19c-0.2,0.12-0.62,0.34-1.15,0.4c-0.52,0.08-1.12-0.02-1.55-0.21
				c-0.43-0.19-0.69-0.42-0.89-0.6l-1.04,1.04l1.04-1.04c-0.11-0.12-0.17-0.18-0.21-0.23c-0.54-0.65-1-1.19-1.42-1.2
				c-0.2,0-0.38,0.17-0.4,0.59c-0.02,0.41,0.13,1.1,0.79,1.82c0.03,0.03,0.05,0.05,0.13,0.13l1.2-1.2l-1.2,1.2
				c0.25,0.22,0.58,0.57,1.33,0.93c0.72,0.38,1.98,0.6,3.04,0.36c1.07-0.21,1.83-0.81,1.98-0.92c0.39-0.31,0.63-0.56,0.89-0.81
				c0.25-0.25,0.5-0.5,0.75-0.75c0.48-0.5,0.94-0.98,1.4-1.46c0.46-0.48,0.93-0.96,1.42-1.44c0.58-0.57,1.11-1.32,1.4-2.21
				c0.53-1.52,0.12-3.37-1.04-4.58l0,0l0,0c-1.53-1.7-4.17-2.03-6.13-0.99c-0.03,0.02-0.21,0.11-0.45,0.29
				c-0.12,0.09-0.27,0.19-0.41,0.33c-0.15,0.14-0.3,0.29-0.41,0.41c-0.49,0.53-1.09,1.21-1.58,1.84
				C97.95,50.22,97.01,51.5,97.61,51.44z"/>
		</g>
	</g>
	<g>
		<path id="XMLID_11_" class="st2" d="M148.29,28.07c-0.33-0.28-1.14-0.42-2.06-0.49c-2.48-0.11-5.4-0.07-6.56-0.09
			c-5.27-0.08-9.67-0.01-14.91-0.13c-5.21-0.12-10.64-0.14-15.78-0.12c-2.51,0.01-5.95,0.07-8.45,0.12
			c-1.28,0.02-4.99,0.08-7.4,0.12c-0.52,0.01-0.88,0.01-1.15,0.01c-1.42,0-1.95,1.05,0.16,1.05c1.98,0,9.32,0.02,10.07,0.02
			c6.31,0.09,11.13-0.13,17.4,0.07c6.23,0.2,12.6,0.01,18.84,0.09c0.26,0,4.49-0.01,7.78-0.14
			C147.55,28.48,148.6,28.33,148.29,28.07z"/>
		<path id="XMLID_10_" class="st2" d="M147.59,39.85c-0.33-0.28-1.14-0.42-2.06-0.49c-0.98-0.11-2.14-0.07-2.6-0.09
			c-2.09-0.08-3.83-0.01-5.91-0.13c-2.07-0.12-4.22-0.14-6.25-0.12c-0.99,0.01-2.36,0.07-3.35,0.12c-0.51,0.02-1.98,0.08-2.93,0.12
			c-0.52,0.01-0.88,0.01-1.15,0.01c-1.42,0-1.95,1.05,0.16,1.05c0.2,0,0.48,0,0.99,0c1.1,0.01,3.33,0.02,3.6,0.02
			c2.5,0.09,4.41-0.13,6.9,0.07c2.47,0.2,5,0.01,7.47,0.09c0.1,0,1.78-0.01,3.08-0.14C146.86,40.26,147.91,40.11,147.59,39.85z"/>
		<path id="XMLID_5_" class="st2" d="M148.29,51.63c-0.33-0.28-1.14-0.42-2.06-0.49c-0.98-0.11-2.14-0.07-2.6-0.09
			c-2.09-0.08-3.83-0.01-5.91-0.13c-2.07-0.12-4.22-0.14-6.25-0.12c-0.99,0.01-2.36,0.07-3.35,0.12c-0.51,0.02-1.98,0.08-2.93,0.12
			c-0.52,0.01-0.88,0.01-1.15,0.01c-1.42,0-1.95,1.05,0.16,1.05c0.2,0,0.48,0,0.99,0c1.1,0.01,3.33,0.02,3.6,0.02
			c2.5,0.09,4.41-0.13,6.9,0.07c2.47,0.2,5,0.01,7.47,0.09c0.1,0,1.78-0.01,3.08-0.14C147.55,52.05,148.6,51.89,148.29,51.63z"/>
		<path id="XMLID_4_" class="st2" d="M148.29,63.41c-0.33-0.28-1.14-0.42-2.06-0.49c-0.98-0.11-2.14-0.07-2.6-0.09
			c-2.09-0.08-3.83-0.01-5.91-0.13c-2.07-0.12-4.22-0.14-6.25-0.12c-0.99,0.01-2.36,0.07-3.35,0.12c-0.51,0.02-1.98,0.08-2.93,0.12
			c-0.52,0.01-0.88,0.01-1.15,0.01c-1.42,0-1.95,1.05,0.16,1.05c0.2,0,0.48,0,0.99,0c1.1,0.01,3.33,0.02,3.6,0.02
			c2.5,0.09,4.41-0.13,6.9,0.07c2.47,0.2,5,0.01,7.47,0.09c0.1,0,1.78-0.01,3.08-0.14C147.55,63.83,148.6,63.67,148.29,63.41z"/>
	</g>
	<g>
		<path id="XMLID_6_" class="st2" d="M52.02,82.77c0.33,0.28,1.14,0.42,2.06,0.49c2.34,0.11,5.1,0.07,6.2,0.09
			c4.98,0.08,9.14,0.01,14.09,0.13c4.93,0.12,10.06,0.14,14.91,0.12c2.37-0.01,5.63-0.07,7.99-0.12c1.21-0.02,4.71-0.08,6.99-0.12
			c0.52-0.01,0.88-0.01,1.15-0.01c1.42,0,1.95-1.05-0.16-1.05c-0.2,0-0.48,0-0.99,0c-2.63-0.01-7.94-0.02-8.58-0.02
			c-5.97-0.09-10.52,0.13-16.44-0.07c-5.89-0.2-11.91-0.01-17.81-0.09c-0.25,0-4.25,0.01-7.36,0.14
			C52.75,82.36,51.71,82.51,52.02,82.77z"/>
		<path id="XMLID_7_" class="st2" d="M75.49,71.18c-0.33-0.28-1.14-0.42-2.06-0.49c-0.89-0.11-1.94-0.07-2.35-0.09
			c-1.89-0.08-3.47-0.01-5.35-0.13c-1.87-0.12-3.82-0.14-5.66-0.12c-0.9,0.01-2.14,0.07-3.03,0.12c-0.46,0.02-1.79,0.08-2.66,0.12
			c-0.52,0.01-0.88,0.01-1.15,0.01c-1.42,0-1.95,1.05,0.16,1.05c0.2,0,0.48,0,0.99,0c1,0.01,3.02,0.02,3.26,0.02
			c2.27,0.09,4-0.13,6.25,0.07c2.24,0.2,4.52,0.01,6.76,0.09c0.09,0,1.61-0.01,2.79-0.14C74.75,71.6,75.8,71.44,75.49,71.18z"/>
		<path id="XMLID_8_" class="st2" d="M75.49,59.4c-0.33-0.28-1.14-0.42-2.06-0.49c-0.89-0.11-1.94-0.07-2.35-0.09
			c-1.89-0.08-3.47-0.01-5.35-0.13c-1.87-0.12-3.82-0.14-5.66-0.12c-0.9,0.01-2.14,0.07-3.03,0.12c-0.46,0.02-1.79,0.08-2.66,0.12
			c-0.52,0.01-0.88,0.01-1.15,0.01c-1.42,0-1.95,1.05,0.16,1.05c0.2,0,0.48,0,0.99,0c1,0.01,3.02,0.02,3.26,0.02
			c2.27,0.09,4-0.13,6.25,0.07c2.24,0.2,4.52,0.01,6.76,0.09c0.09,0,1.61-0.01,2.79-0.14C74.75,59.82,75.8,59.66,75.49,59.4z"/>
		<path id="XMLID_9_" class="st2" d="M75.49,47.62c-0.33-0.28-1.14-0.42-2.06-0.49c-0.89-0.11-1.94-0.07-2.35-0.09
			c-1.89-0.08-3.47-0.01-5.35-0.13c-1.87-0.12-3.82-0.14-5.66-0.12c-0.9,0.01-2.14,0.07-3.03,0.12c-0.46,0.02-1.79,0.08-2.66,0.12
			c-0.52,0.01-0.88,0.01-1.15,0.01c-1.42,0-1.95,1.05,0.16,1.05c0.2,0,0.48,0,0.99,0c1,0.01,3.02,0.02,3.26,0.02
			c2.27,0.09,4-0.13,6.25,0.07c2.24,0.2,4.52,0.01,6.76,0.09c0.09,0,1.61-0.01,2.79-0.14C74.75,48.04,75.8,47.88,75.49,47.62z"/>
	</g>
</g>
</svg>
