<?xml version="1.0" encoding="UTF-8" standalone="no"?>
<svg width="47px" height="47px" viewBox="0 0 47 47" version="1.1" xmlns="http://www.w3.org/2000/svg" xmlns:xlink="http://www.w3.org/1999/xlink">
    <!-- Generator: Sketch 42 (36781) - http://www.bohemiancoding.com/sketch -->
    <title>Social/facebook</title>
    <desc>Created with Sketch.</desc>
    <defs>
        <path d="M23.5,47 C36.4786916,47 47,36.4786916 47,23.5 C47,10.5213084 36.4786916,0 23.5,0 C10.5213084,0 0,10.5213084 0,23.5 C0,36.4786916 10.5213084,47 23.5,47 Z" id="path-1"></path>
        <mask id="mask-2" maskContentUnits="userSpaceOnUse" maskUnits="objectBoundingBox" x="0" y="0" width="47" height="47" fill="white">
            <use xlink:href="#path-1"></use>
        </mask>
    </defs>
    <g id="HighFidelity---Profession" stroke="none" stroke-width="1" fill="none" fill-rule="evenodd">
        <g id="Professional-Template-Mobile-Lawyer" transform="translate(-36.000000, -4456.000000)">
            <g id="Group-2" transform="translate(36.000000, 4456.000000)">
                <g id="Social/facebook">
                    <use id="Oval-27" stroke="#B7BCC0" mask="url(#mask-2)" stroke-width="2" fill="#FFFFFF" xlink:href="#path-1"></use>
                    <path d="M25.7890673,18.9255465 C26.1922345,18.9255465 26.7401284,18.9979099 27.184646,19.0909484 C27.2880222,19.1116237 27.4017361,19.0909484 27.4947746,19.0289227 C27.5878132,18.966897 27.649839,18.8635208 27.6601766,18.7601446 L27.9392923,16.7443087 C27.9599676,16.5582315 27.8462537,16.3618167 27.649839,16.3101286 C26.9262055,16.1033762 26.1405464,16 25.3238744,16 C22.8531832,16 21.6540192,17.1784887 21.6540192,19.6181671 L21.6540192,20.682942 L20.3928296,20.682942 C20.1757395,20.682942 20,20.8586815 20,21.0757715 L20,23.1432956 C20,23.3707232 20.1757395,23.5464627 20.3928296,23.5464627 L21.6540192,23.5464627 L21.6540192,31.4857551 C21.6540192,31.7028451 21.8297588,31.8785846 22.0468488,31.8785846 L24.6312539,31.8785846 C24.8380063,31.8785846 25.0137458,31.7028451 25.0137458,31.4857551 L25.0137458,23.5464627 L27.1019451,23.5464627 C27.3086975,23.5464627 27.4740994,23.3810608 27.4947746,23.1743084 L27.6395013,21.1067844 C27.649839,20.9930706 27.6084885,20.8896944 27.5361251,20.8069934 C27.4637618,20.7242924 27.3603856,20.682942 27.2570094,20.682942 L25.0137458,20.682942 L25.0137458,19.7732314 C25.0137458,19.0909484 25.0861091,18.9255465 25.7890673,18.9255465 L25.7890673,18.9255465 Z" id="facebook-ico" fill="#878787"></path>
                </g>
            </g>
        </g>
    </g>
</svg>