<?xml version="1.0" encoding="utf-8"?>
<!-- Generator: Adobe Illustrator 19.0.0, SVG Export Plug-In . SVG Version: 6.00 Build 0)  -->
<svg version="1.1" id="Layer_1" xmlns="http://www.w3.org/2000/svg" xmlns:xlink="http://www.w3.org/1999/xlink" x="0px" y="0px"
	 viewBox="-499 361 200 120" style="enable-background:new -499 361 200 120;" xml:space="preserve">
<style type="text/css">
	.st0{opacity:0.15;}
	.st1{fill-rule:evenodd;clip-rule:evenodd;fill:#505A78;}
	.st2{fill:#505A78;}
	.st3{opacity:0.1;}
	.st4{fill:#FFFFFF;}
	.st5{fill:#EDEEF1;}
	.st6{fill:#B2D8F7;}
	.st7{fill:#92E3A5;}
	.st8{fill:#F6F7F8;}
</style>
<g>
	<g class="st0">
		<path class="st1" d="M-337.1,464.3H-460c-0.6,0-1.1-0.5-1.1-1.1v-0.5c0-0.6,0.5-1.1,1.1-1.1h122.9c0.6,0,1.1,0.5,1.1,1.1v0.5
			C-336,463.8-336.5,464.3-337.1,464.3z"/>
		<path class="st2" d="M-337,464.5l0.1,0l0.1,0l0,0l0,0l0,0l0.1,0c0.4-0.2,0.6-0.5,0.7-0.8c0.1-0.2,0-0.4,0-0.5c0-0.2,0-0.3,0-0.5
			c-0.1-0.4-0.3-0.7-0.7-0.9c-0.2-0.1-0.4-0.1-0.6-0.1l-0.5,0c-2.7,0-5.3,0-7.8,0c-4.9,0-9.1,0-11.4,0c-8.5,0-16.5,0-24.4,0
			c-8.2,0-16.2,0-24.3,0c-7.9,0-15.9,0-24.4,0c-6.4,0-12.8-0.1-19.3-0.1c-3.2,0-6.4,0-9.7,0c-0.4,0-0.8,0-1.2,0
			c-0.5,0.1-1,0.4-1.2,0.9c-0.1,0.2-0.1,0.5-0.1,0.7l0,0.3c0,0.1,0,0.3,0.1,0.4c0.1,0.5,0.6,0.9,1.1,1c1.7,0,3.3,0,4.9,0
			c6.5,0,12.9,0,19.3,0c6.5,0,12.6,0,18.9,0c6.1,0,13.8,0,21.1,0c7.3,0,14.6,0,20.7,0c4.2,0,13.7,0,23.3,0c4.9,0,10.4,0,14.5,0
			c0.2,0,0.3,0,0.4,0v-0.4c-0.1,0-0.2,0-0.4,0c-4.1,0-12.1,0-19.3,0c-12.4,0-24.6,0-26.7,0c-7.5,0-14.5,0-21.3,0
			c-7.3,0-14.3,0-21.3,0c-7,0-14,0-21.3,0c-3.4,0-6.9,0-10.4,0l-1.3,0l-0.7,0c-0.2,0-0.4,0-0.5-0.1c-0.3-0.2-0.5-0.5-0.4-0.9l0-0.3
			c0-0.1,0-0.2,0-0.3c0.1-0.2,0.2-0.3,0.3-0.4c0.1-0.1,0.3-0.2,0.5-0.2l0.7,0l1.4,0c0.9,0,1.8,0,2.8,0c7.7,0,15.4,0,23.1,0
			c7.7,0,15.4,0,23.1,0c7.7,0,15.4,0,23.1-0.1c7.7,0,15.4,0.1,23.1,0.1c3.7,0,9.4,0,19.7-0.1c1.6,0,3.2,0,4.8,0l1.2,0
			c0.3,0,0.6,0.2,0.8,0.5c0.1,0.1,0.1,0.3,0.1,0.5c0,0.2,0,0.4,0,0.6c-0.1,0.3-0.3,0.6-0.6,0.7c-0.1,0-0.2,0.1-0.2,0.1v0.4
			C-337.1,464.5-337,464.5-337,464.5z"/>
	</g>
	<path class="st2" d="M-454.6,393.8c-0.4,0.4-0.6,1.5-0.7,2.8c-0.1,11.3-0.1,24.7-0.1,29.9c0,6.7,0,13.1-0.1,19.4c0,3.1,0,6.2,0,9.3
		c0,1.5,0,3.1,0,4.6l0,1.2c0,0.1,0,0.5,0.1,0.8c0.1,0.3,0.3,0.6,0.6,0.8c0.3,0.2,0.6,0.3,0.9,0.3l0.7,0l1.2,0
		c9.7,0,19.6,0.1,30.2,0.1c23.8,0.2,48.6,0.2,72.1,0.2c1.4,0,2.9,0,4.5,0c0.4,0,0.8,0,1.2,0l0.6,0l0.3,0c0.2,0,0.4,0,0.6-0.1
		c0.7-0.2,1.3-0.9,1.3-1.7c0-0.4,0-0.9,0-1.3c0-3.3,0-6.7,0-10.1c0-6.8-0.1-13.6-0.1-19.3c0-6.1-0.1-27.1-0.2-35.3
		c0-1.9-1.4-2.6-1.4,0.2c0,8.4,0,39.6,0,42.8c0,7.2,0,14,0,20.6c0,0.8,0,1.5,0,2.3c0,0.1-0.1,0.2-0.2,0.2l-1.1,0c-1.6,0-3.2,0-4.8,0
		c-3.2,0-6.4,0-9.5,0c-12.7,0-25.3,0-39.6-0.1c-17.8-0.2-35.8-0.1-53.7-0.1l-1.6,0c0,0,0,0,0,0l0-0.8l0-4.1c0-2.7,0-5.4,0-8.1
		c0-5.4,0-10.8,0-16.1c0-1.2,0-20.5-0.2-35.5C-454.1,394.8-454.3,393.4-454.6,393.8z"/>
	<g class="st3">
		<path class="st2" d="M-363.5,449.8h-70.2c-0.4,0-0.8-0.4-0.8-0.8v-27.8c0-0.4,0.4-0.8,0.8-0.8h70.2c0.4,0,0.8,0.4,0.8,0.8V449
			C-362.7,449.5-363,449.8-363.5,449.8z"/>
		<path class="st2" d="M-363.5,450.4h-70.2c-0.8,0-1.4-0.6-1.4-1.4v-27.8c0-0.8,0.6-1.4,1.4-1.4h70.2c0.8,0,1.4,0.6,1.4,1.4V449
			C-362.1,449.8-362.7,450.4-363.5,450.4z M-433.7,421c-0.1,0-0.2,0.1-0.2,0.2V449c0,0.1,0.1,0.2,0.2,0.2h70.2
			c0.1,0,0.2-0.1,0.2-0.2v-27.8c0-0.1-0.1-0.2-0.2-0.2H-433.7z"/>
	</g>
	<g>
		<path class="st4" d="M-363.1,412.1h-71c-0.2,0-0.4,0.2-0.4,0.4v34c0,0.4,0.4,0.8,0.8,0.8h70.2c0.4,0,0.8-0.4,0.8-0.8v-34
			C-362.7,412.3-362.9,412.1-363.1,412.1z"/>
	</g>
	<path class="st5" d="M-376,399.1h-45.2c-1.3,0-2.4-1.1-2.4-2.4v-6c0-1.3,1.1-2.4,2.4-2.4h45.2c1.3,0,2.4,1.1,2.4,2.4v6
		C-373.6,398-374.7,399.1-376,399.1z"/>
	<path class="st2" d="M-423.5,393.4c-0.4,0.4-0.6,1.5-0.7,2.8c0,0.3,0,0.6,0,1c0,0.4,0.1,0.8,0.3,1.2c0.4,0.7,1.1,1.3,1.8,1.5
		c0.3,0.1,0.8,0.1,1,0.1c0.3,0,0.5,0,0.8,0c0.5,0,0.9,0,1.2,0c5.3,0.1,9.8,0,15.1,0.2c5.3,0.2,10.8,0.2,16,0.2c2.5,0,6-0.1,8.6-0.2
		c0.6,0,1.9,0,3.3-0.1c0.9,0,1.9-0.5,2.4-1.2c0.3-0.4,0.5-0.8,0.6-1.2c0.1-0.4,0.1-0.9,0.1-1.1c0-0.7,0-1.2,0-1.5
		c0-1.9-1.4-2.6-1.4,0.2c0,0.3,0,0.6,0,1.3c0,0.4,0,0.6-0.1,0.9c-0.1,0.3-0.3,0.5-0.5,0.7c-0.3,0.2-0.6,0.3-0.9,0.4
		c-0.4,0-0.9,0-1.4,0c-1.9,0-3.5,0-3.8,0c-6.4-0.1-11.3,0.2-17.6-0.1c-6.3-0.3-12.8,0-19.1-0.1c-0.1,0-1.3,0-2.8,0
		c-0.2,0-0.4,0-0.6,0c-0.1,0-0.2,0-0.4,0c-0.2-0.1-0.5-0.2-0.7-0.4c-0.2-0.2-0.4-0.4-0.4-0.7c0-0.1-0.1-0.2-0.1-0.4
		c0-0.2,0-0.4,0-0.6C-422.9,394.4-423.1,393-423.5,393.4z"/>
	<g>
		<path class="st6" d="M-363,412.1h-71.1c-0.2,0-0.4,0.2-0.4,0.4v5.1c0,0.2,0.2,0.4,0.4,0.4h71.1c0.2,0,0.4-0.2,0.4-0.4v-5.1
			C-362.7,412.3-362.8,412.1-363,412.1z"/>
	</g>
	<path class="st2" d="M-372.2,424.8c-0.3-0.3-1.1-0.4-2.1-0.5c-2.3-0.1-5.1-0.1-6.2-0.1c-5-0.1-9.1,0-14.1-0.1
		c-4.9-0.1-10.1-0.1-14.9-0.1c-2.4,0-5.6,0.1-8,0.1c-1.2,0-4.7,0.1-7,0.1c-0.5,0-0.9,0-1.2,0c-1.4,0-2,1.1,0.2,1.1c0.2,0,0.5,0,1,0
		c2.6,0,7.9,0,8.6,0c6,0.1,10.5-0.1,16.4,0.1c5.9,0.2,11.9,0,17.8,0.1c0.2,0,4.2,0,7.4-0.1C-373,425.3-371.9,425.1-372.2,424.8z"/>
	<path class="st2" d="M-402.3,429.7c-0.3-0.3-1.1-0.4-2.1-0.5c-0.9-0.1-2-0.1-2.4-0.1c-1.9-0.1-3.5,0-5.4-0.1
		c-1.9-0.1-3.9-0.1-5.7-0.1c-0.9,0-2.2,0.1-3.1,0.1c-0.5,0-1.8,0.1-2.7,0.1c-0.5,0-0.9,0-1.2,0c-1.4,0-2,1.1,0.2,1.1
		c0.2,0,0.5,0,1,0c1,0,3,0,3.3,0c2.3,0.1,4-0.1,6.3,0.1c2.3,0.2,4.6,0,6.8,0.1c0.1,0,1.6,0,2.8-0.1
		C-403,430.1-401.9,429.9-402.3,429.7z"/>
	<path class="st2" d="M-402.3,434.5c-0.3-0.3-1.1-0.4-2.1-0.5c-0.9-0.1-2-0.1-2.4-0.1c-1.9-0.1-3.5,0-5.4-0.1
		c-1.9-0.1-3.9-0.1-5.7-0.1c-0.9,0-2.2,0.1-3.1,0.1c-0.5,0-1.8,0.1-2.7,0.1c-0.5,0-0.9,0-1.2,0c-1.4,0-2,1.1,0.2,1.1
		c0.2,0,0.5,0,1,0c1,0,3,0,3.3,0c2.3,0.1,4-0.1,6.3,0.1c2.3,0.2,4.6,0,6.8,0.1c0.1,0,1.6,0,2.8-0.1
		C-403,434.9-401.9,434.8-402.3,434.5z"/>
	<path class="st2" d="M-402.3,439.4c-0.3-0.3-1.1-0.4-2.1-0.5c-0.9-0.1-2-0.1-2.4-0.1c-1.9-0.1-3.5,0-5.4-0.1
		c-1.9-0.1-3.9-0.1-5.7-0.1c-0.9,0-2.2,0.1-3.1,0.1c-0.5,0-1.8,0.1-2.7,0.1c-0.5,0-0.9,0-1.2,0c-1.4,0-2,1.1,0.2,1.1
		c0.2,0,0.5,0,1,0c1,0,3,0,3.3,0c2.3,0.1,4-0.1,6.3,0.1c2.3,0.2,4.6,0,6.8,0.1c0.1,0,1.6,0,2.8-0.1
		C-403,439.8-401.9,439.6-402.3,439.4z"/>
	<path class="st2" d="M-375.1,429.7c-0.3-0.3-1.1-0.4-2.1-0.5c-0.7-0.1-1.5-0.1-1.8-0.1c-1.4-0.1-2.6,0-4.1-0.1
		c-1.4-0.1-2.9-0.1-4.3-0.1c-0.7,0-1.6,0.1-2.3,0.1c-0.4,0-1.4,0.1-2,0.1c-0.5,0-0.9,0-1.2,0c-1.4,0-2,1.1,0.2,1.1c0.2,0,0.5,0,1,0
		c0.8,0,2.3,0,2.5,0c1.7,0.1,3-0.1,4.8,0.1c1.7,0.2,3.4,0,5.1,0.1c0.1,0,1.2,0,2.1-0.1C-375.8,430.1-374.8,429.9-375.1,429.7z"/>
	<path class="st2" d="M-376,434.5c-0.3-0.3-1.1-0.4-2.1-0.5c-0.6-0.1-1.4-0.1-1.7-0.1c-1.3-0.1-2.5,0-3.8-0.1
		c-1.3-0.1-2.7-0.1-4-0.1c-0.6,0-1.5,0.1-2.2,0.1c-0.3,0-1.3,0.1-1.9,0.1c-0.5,0-0.9,0-1.2,0c-1.4,0-2,1.1,0.2,1.1c0.2,0,0.5,0,1,0
		c0.7,0,2.1,0,2.3,0c1.6,0.1,2.8-0.1,4.4,0.1c1.6,0.2,3.2,0,4.8,0.1c0.1,0,1.1,0,2-0.1C-376.8,434.9-375.7,434.8-376,434.5z"/>
	<path class="st2" d="M-373.2,439.4c-0.3-0.3-1.1-0.4-2.1-0.5c-0.8-0.1-1.7-0.1-2-0.1c-1.6-0.1-3,0-4.6-0.1
		c-1.6-0.1-3.3-0.1-4.9-0.1c-0.8,0-1.8,0.1-2.6,0.1c-0.4,0-1.5,0.1-2.3,0.1c-0.5,0-0.9,0-1.2,0c-1.4,0-2,1.1,0.2,1.1
		c0.2,0,0.5,0,1,0c0.9,0,2.6,0,2.8,0c2,0.1,3.4-0.1,5.4,0.1c1.9,0.2,3.9,0,5.8,0.1c0.1,0,1.4,0,2.4-0.1
		C-373.9,439.8-372.9,439.6-373.2,439.4z"/>
	<path class="st2" d="M-398.7,443.9c0.3-0.3,0.4-1.1,0.5-2.1c0.1-0.7,0.1-1.5,0.1-1.8c0.1-1.5,0-2.7,0.1-4.1c0.1-1.4,0.1-3,0.1-4.4
		c0-0.7-0.1-1.7-0.1-2.3c0-0.4-0.1-1.4-0.1-2.1c0-0.5,0-0.9,0-1.2c0-1.4-1.1-2-1.1,0.2c0,0.2,0,0.5,0,1c0,0.8,0,2.3,0,2.5
		c-0.1,1.8,0.1,3.1-0.1,4.8c-0.2,1.7,0,3.5-0.1,5.2c0,0.1,0,1.2,0.1,2.2C-399.1,443.2-398.9,444.2-398.7,443.9z"/>
	<path class="st2" d="M-362.5,442.6c-0.4,0.4-0.6,1.5-0.7,2.8l0,0.9l0,0.3c0,0.1,0,0.1-0.1,0.2c-0.1,0.1-0.2,0.2-0.3,0.1l-0.8,0
		c-1.2,0-2.3,0-3.5,0c-2.3,0-4.7,0-6.8,0c-4.3,0-8.1,0-10.2,0c-9.6,0-18.5,0-27.3-0.1c-4.4,0-8.8,0-13.3,0c-2.3,0-4.5,0-6.8,0
		l-0.9,0l-0.3,0c0,0-0.1,0-0.1,0c0,0-0.1-0.1-0.1-0.2l0-0.8c0-1.2,0-2.4,0-3.6c0-9.5,0.1-19.3,0.1-29c9.1,0,18.1,0,26.9,0
		c9.2,0,21.8-0.1,30.9-0.2c1.5,0,3.9,0,6.8,0c1.5,0,3,0,4.7,0l0.5,0c0.1,0,0.1,0,0.2,0c0.1,0,0.1,0.1,0.1,0.1l0,0.3
		c0,0.9,0,1.7,0,2.6c0,4.6,0.1,9.3,0.1,12c0,1.9,1.4,2.6,1.4-0.2c0-0.8,0-2.2,0-3.8c0-1.9,0-4,0-6.2c0-1.1,0-2.2,0-3.2l0-1.8
		c0-0.5-0.1-0.9-0.5-1.1c-0.2-0.1-0.4-0.2-0.6-0.2c-0.2,0-0.5,0-0.7,0c-8.6,0-16.6,0-18.1,0c-11.5-0.1-21.7,0-31.9,0
		c-5.1,0-10.1,0-15.4,0c-1.3,0-2.6,0-4,0l-0.5,0c-0.3,0-0.6,0-0.9,0.1c-0.2,0.1-0.5,0.2-0.6,0.4c-0.2,0.2-0.2,0.5-0.2,0.8
		c0,0.7,0,1.5,0,2.2c0,2.7-0.1,5.5-0.1,8.4c0,5.7-0.1,11.4-0.1,17.2l0,4.3l0,1.1l0,0.5c0,0,0,0.3,0,0.5c0,0.2,0.1,0.3,0.1,0.5
		c0.3,0.6,0.9,1.1,1.6,1.1l1.2,0l8.6,0c11.5,0,23.1-0.1,34.5,0c0.5,0,4.6,0,10.1,0c2.7,0,5.8,0,9-0.1c1.6,0,3.2,0,4.7,0l1.2,0l0.6,0
		c0.1,0,0.6,0,0.9-0.1c0.7-0.2,1.1-0.9,1.1-1.6c0-0.4,0-0.8,0-1.2C-362,443.6-362.2,442.2-362.5,442.6z"/>
	<path class="st2" d="M-433.7,418.3c0.2,0,0.4,0,0.5,0c2.7,0.1,5.3,0.1,6.4,0.2c2.3,0,4.5,0.1,6.7,0.1c2.2,0,4.4,0,6.6,0
		c2.1,0,4.3-0.2,6.6-0.1c1.7,0,3.5,0.2,5.3,0.3c1.8,0,3.5-0.2,5.3-0.2c1.8,0,3.5,0,5.3,0c1.8,0,3.4,0.1,5.2,0.1
		c1.7,0,3.8-0.1,5.8-0.1c2,0,4,0,5.7,0c1.1,0,3.7,0,6.4,0c1.3,0,2.8-0.1,4-0.1c0.5,0,0.8-0.1,1.1-0.1v-1.1c-0.2,0-0.5,0-1.1,0
		c-1.1,0-3.3,0-5.3,0c-3.4,0-6.7,0-7.3,0c-2,0-4,0-5.8,0c-2,0-3.9,0-5.8,0c-1.9,0-3.8,0.1-5.8,0.1c-1.9,0-3.8-0.1-5.8-0.2
		c-2.1-0.1-4.2,0-6.3,0c-2.1,0-4.2-0.1-6.3-0.1c-2.1,0-4.2,0.2-6.3,0.2c-2.1,0-4.2-0.3-6.3-0.3c-1,0-2.6,0.1-5.4,0.2
		c-0.9,0-1.8,0.1-2.7,0.1c-0.3,0-0.6,0.1-0.9,0.1v1.1C-433.9,418.3-433.8,418.3-433.7,418.3z"/>
	<g>
		<g class="st0">
			<circle class="st2" cx="-362.7" cy="434" r="8.4"/>
			<path class="st2" d="M-363,441.9c-0.2,0-0.4,0-0.5-0.1c-1.9-0.3-3.4-1.3-3.9-1.8c-1.2-1-2-2.3-2.4-3.7c-0.5-1.4-0.5-2.9-0.1-4.4
				c0.2-0.7,0.4-1.4,0.8-2c0.3-0.7,0.8-1.3,1.4-1.8c0.9-0.8,2-1.2,3.2-1.4c1.1-0.3,2.3-0.5,3.4-0.3c1.1,0.2,2.3,0.7,3.2,1.4
				c0.9,0.7,1.6,1.7,2.1,2.7c0.5,1,1,2.3,0.9,3.7c0,1.3-0.5,2.6-1,3.6c-0.2,0.3-0.5,0.9-1.1,1.4c-0.5,0.5-1.2,1.1-2,1.5
				c-0.8,0.4-1.8,0.8-2.5,0.9c-0.4,0.1-0.7,0.1-1,0.1v1.1c0.2,0,0.5,0,1.1-0.1c0.9-0.1,2.6-0.6,3.9-1.4c1.1-0.7,2-1.7,2.6-2.6
				c0.6-0.9,0.8-1.6,0.9-1.8c0.6-1.5,0.7-3.1,0.4-4.5c-0.2-1.6-0.9-3-1.8-4.2c-1-1.2-2.3-2.1-3.7-2.7c-1.4-0.5-2.9-0.9-4.5-0.8
				c-0.8,0.1-1.7,0.3-2.5,0.6c-0.8,0.4-1.5,0.8-2.2,1.3c-1.3,1.1-2.4,2.4-3,4.1c-0.6,1.6-0.5,3.4-0.2,5c0.4,1.6,0.9,3.3,2.1,4.6
				c0.3,0.3,0.7,0.7,1.3,1c0.6,0.4,1.4,0.8,2.5,1.2c0.7,0.2,1.4,0.3,2.1,0.4c0.3,0,0.7,0,1-0.1v-1.1
				C-362.8,441.9-362.9,441.9-363,441.9z"/>
		</g>
		<g>
			<circle class="st7" cx="-362.7" cy="432.3" r="8.4"/>
			<path class="st2" d="M-368.4,437.8c-1.7-1.8-2.4-4.1-2.2-6.3c0.2-2.2,1.4-4.3,3.4-5.6c2-1.3,4.6-1.7,6.8-0.9
				c2.3,0.7,4.1,2.6,4.9,4.7c0.4,1,0.6,2.4,0.4,3.7c-0.2,1.3-0.7,2.6-1.4,3.5c-0.3,0.5-1,1.3-2,2c-1,0.7-2.3,1.2-3.5,1.3
				c-0.3,0-0.5,0-0.7,0v1.1c0.2,0,0.5,0,0.8,0c0.8-0.1,1.7-0.3,2.6-0.6c0.9-0.4,1.8-0.9,2.5-1.5c1.4-1.2,2.1-2.6,2.2-2.9
				c1.5-3,1-6.3-0.6-8.7c-1.6-2.4-4.3-4.1-7.7-4.2c-1.6,0-3.3,0.4-4.7,1.3c-1.4,0.9-2.6,2.2-3.4,3.7c-1.6,3-1.2,6.8,0.8,9.5
				c0.1,0.1,0.7,1,1.9,1.9c1.2,0.9,3,1.7,4.9,1.7c0.1,0,0.4,0,0.7,0v-1.1c-0.2,0-0.4-0.1-0.6-0.1c-1.1-0.1-2.2-0.4-3.1-0.9
				C-367.3,438.8-368,438.2-368.4,437.8z"/>
		</g>
		<path class="st2" d="M-358.2,429.5c-0.3,0-0.6,0.2-1,0.5c-0.2,0.1-0.4,0.3-0.6,0.5l-0.2,0.1l0,0l-0.1,0.1
			c-0.3,0.2-0.4,0.4-0.6,0.5c-0.6,0.5-0.9,0.9-1.5,1.4c-0.6,0.4-1.1,0.9-1.6,1.5l-0.1,0.1l0,0c0,0,0,0,0,0c0,0,0,0.1,0,0.1
			c0,0,0,0,0,0c0,0,0,0-0.1,0c0,0,0,0,0,0l-0.2-0.1c-0.1-0.1-0.2-0.2-0.3-0.2c-0.3-0.3-0.6-0.6-0.8-0.8c-1-1-2.1-0.6-0.6,0.9
			c0.1,0.1,0.3,0.3,0.7,0.7c0.4,0.4,1.1,1.2,1.2,1.3c0,0,0.1,0.1,0.1,0.1c1.3-1.1,1.3-1.5,2.1-2c0.7-0.5,1.2-1.2,1.9-1.8
			c0,0,0.4-0.4,0.7-0.9C-358.4,430.3-357.8,429.5-358.2,429.5z"/>
	</g>
	<g class="st3">
		<path class="st2" d="M-338.5,393.9h-120.1c-0.5,0-0.9-0.4-0.9-0.9v-2.4c0-0.5,0.4-0.9,0.9-0.9h120.1c0.5,0,0.9,0.4,0.9,0.9v2.4
			C-337.7,393.5-338,393.9-338.5,393.9z"/>
		<path class="st2" d="M-338.5,394.5h-120.1c-0.8,0-1.4-0.6-1.4-1.4v-2.4c0-0.8,0.6-1.4,1.4-1.4h120.1c0.8,0,1.4,0.6,1.4,1.4v2.4
			C-337.1,393.8-337.7,394.5-338.5,394.5z M-458.6,390.4c-0.2,0-0.3,0.1-0.3,0.3v2.4c0,0.2,0.1,0.3,0.3,0.3h120.1
			c0.2,0,0.3-0.1,0.3-0.3v-2.4c0-0.2-0.1-0.3-0.3-0.3H-458.6z"/>
	</g>
	<g>
		<path class="st8" d="M-338.1,391.5H-459c-0.3,0-0.5-0.2-0.5-0.5v-11.4c0-0.3,0.2-0.5,0.5-0.5h120.9c0.3,0,0.5,0.2,0.5,0.5V391
			C-337.7,391.3-337.9,391.5-338.1,391.5z"/>
		<path class="st2" d="M-337.4,391.7c0.1-0.1,0.2-0.3,0.2-0.5l0-0.1l0-0.1l0-0.1l0-0.2c0-1.4,0-2.8,0-4.2c0-1.4,0-2.8,0-4.2
			c0-0.7,0-1.4,0-2c0-0.1,0-0.5,0-0.7c0-0.2-0.1-0.5-0.2-0.7c-0.3-0.4-0.9-0.4-1.4-0.4c-5.1,0-9.5-0.1-12-0.1
			c-8.9,0-17.4-0.1-25.6-0.1c-8.6,0-17,0-25.5,0c-8.3,0-16.7,0.2-25.6,0.1c-6.7,0-13.4-0.2-20.2-0.3c-3.4,0-6.8,0-10.2,0.1l-0.6,0
			c-0.3,0-0.8,0-1.1,0.1c-0.3,0.1-0.6,0.4-0.7,0.8c-0.1,0.3-0.1,0.8-0.1,1.1l0,2.5c0,1.7,0,3.4,0,5.1l0,2.5c0,0.2,0,0.8,0.1,1
			c0.1,0.3,0.4,0.6,0.7,0.7c0.3,0.1,0.7,0.1,1.1,0.1l0.6,0c1.7,0,3.4,0,5.1,0c3.4,0,6.8,0,10.1,0c6.8,0,13.2,0.1,19.9,0.1
			c6.4,0,14.5-0.1,22.1-0.1c7.7,0,15.3,0,21.7,0c4.4,0,14.3,0,24.5,0c5.2,0,11-0.1,15.2-0.1c0.5,0,0.8-0.1,1.1-0.1v-1.1
			c-0.2,0-0.5,0-1.1,0c-4.3,0-12.7,0-20.3,0c-13.1,0-25.8,0-28,0c-7.8,0-15.2,0-22.4,0c-7.6,0-15,0-22.4,0c-7.4,0-14.7,0-22.4,0.1
			c-0.9,0-1.8,0-2.7,0l-1.2,0c-0.1,0-0.2,0-0.2,0c-0.1-0.1,0-0.1,0-0.2c0-1.8,0-3.5,0.1-5.3c0-1.7,0-3.4,0.1-5.2
			c0-0.1,0.1-0.1,0.1-0.1l0.3,0c0.5,0,1,0,1.4,0c1,0,1.9,0,2.9,0c8,0.1,16.2,0,24.3,0c8.1,0,16.1,0.1,24.2,0.1
			c8.1-0.1,16.2-0.1,24.2-0.2c8.1,0,16.2,0.3,24.2,0.3c1.9,0,4.4,0,7.7-0.1c1.7,0,3.5,0,5.7-0.1c1.1,0,2.2,0,3.4,0c0.5,0,1,0,1.6,0
			c0,0,0.1,0,0.1,0.1c0,0.2,0,0.4,0,0.6c0,3.4,0.1,6.8,0.1,10.2l0,0.1l0,0l0,0l0,0l0,0l0,0c0.1,0-0.2,0,0.2,0l0,0l0,0l0,0
			c0,0,0,0,0,0c0,0,0,0,0,0c0,0,0,0,0,0v1C-337.9,392-337.6,391.9-337.4,391.7z"/>
	</g>
</g>
</svg>
