<?xml version="1.0" encoding="UTF-8" standalone="no"?>
<svg width="47px" height="47px" viewBox="0 0 47 47" version="1.1" xmlns="http://www.w3.org/2000/svg" xmlns:xlink="http://www.w3.org/1999/xlink">
    <!-- Generator: Sketch 42 (36781) - http://www.bohemiancoding.com/sketch -->
    <title>Social/rss</title>
    <desc>Created with Sketch.</desc>
    <defs>
        <ellipse id="path-1" cx="23.5" cy="23.5" rx="23.5" ry="23.5"></ellipse>
        <mask id="mask-2" maskContentUnits="userSpaceOnUse" maskUnits="objectBoundingBox" x="0" y="0" width="47" height="47" fill="white">
            <use xlink:href="#path-1"></use>
        </mask>
    </defs>
    <g id="HighFidelity---Profession" stroke="none" stroke-width="1" fill="none" fill-rule="evenodd">
        <g id="Professional-Template-Mobile-Lawyer" transform="translate(-228.000000, -4456.000000)">
            <g id="Group-2" transform="translate(36.000000, 4456.000000)">
                <g id="Social/rss" transform="translate(192.000000, 0.000000)">
                    <use id="Oval-27" stroke="#B7BCC0" mask="url(#mask-2)" stroke-width="2" fill="#FFFFFF" xlink:href="#path-1"></use>
                    <path d="M31.6886792,22.6982066 L31.6886792,20.2953484 L30.0377358,20.2953484 L30.0377358,22.6982066 L27.6603774,22.6982066 L27.6603774,24.4145339 L30.0377358,24.4145339 L30.0377358,26.8860452 L31.6886792,26.8860452 L31.6886792,24.4145339 L34,24.4145339 L34,22.6982066 L31.6886792,22.6982066 L31.6886792,22.6982066 Z M19.6698113,22.5609004 L19.6698113,25.3070241 C19.6698113,25.3070241 22.2323396,25.3034541 23.2757358,25.3034541 C22.710717,27.0836975 21.8321509,28.0531478 19.6698113,28.0531478 C17.4815189,28.0531478 15.7735849,26.2089198 15.7735849,23.9339623 C15.7735849,21.6590048 17.4815189,19.8147768 19.6698113,19.8147768 C20.8267925,19.8147768 21.5740094,20.2375425 22.2594151,20.826792 C22.8080566,20.2564221 22.7622264,20.1751368 24.158066,18.8047525 C22.9731509,17.6835102 21.398283,17 19.6698113,17 C15.9861604,17 13,20.1044242 13,23.9339623 C13,27.7634317 15.9861604,30.8679245 19.6698113,30.8679245 C25.1758396,30.8679245 26.5216226,25.8837101 26.0754717,22.5609004 L19.6698113,22.5609004 L19.6698113,22.5609004 Z" id="GooglePlus" fill="#0B0B0A" opacity="0.490846549"></path>
                </g>
            </g>
        </g>
    </g>
</svg>