<?xml version="1.0" encoding="UTF-8" standalone="no"?>
<svg width="19px" height="14px" viewBox="0 0 19 14" version="1.1" xmlns="http://www.w3.org/2000/svg" xmlns:xlink="http://www.w3.org/1999/xlink">
    <!-- Generator: Sketch 42 (36781) - http://www.bohemiancoding.com/sketch -->
    <title>Icons/Check</title>
    <desc>Created with Sketch.</desc>
    <defs></defs>
    <g id="HighFidelity---Profession" stroke="none" stroke-width="1" fill="none" fill-rule="evenodd">
        <g id="Professional-Template-Mobile-Lawyer" transform="translate(-41.000000, -3652.000000)" fill="#218CE6">
            <g id="Group-2" transform="translate(36.000000, 3652.000000)">
                <g id="Icons/Check" transform="translate(5.000000, 0.000000)">
                    <path d="M18.2789986,3.41148982 C18.2789986,3.13636832 18.1670155,2.86124682 17.9654459,2.66315934 L16.4424753,1.16649837 C16.2409057,0.968410891 15.9609479,0.85836229 15.68099,0.85836229 C15.4010322,0.85836229 15.1210744,0.968410891 14.9195047,1.16649837 L7.57341143,8.39669141 L4.28110741,5.1502577 C4.07953778,4.95217022 3.79957995,4.84212162 3.51962213,4.84212162 C3.23966431,4.84212162 2.95970648,4.95217022 2.75813685,5.1502577 L1.23516628,6.64691867 C1.03359665,6.84500615 0.921613518,7.12012765 0.921613518,7.39524915 C0.921613518,7.67037065 1.03359665,7.94549215 1.23516628,8.14357963 L5.28895558,12.127339 L6.81192615,13.6239999 C7.01349578,13.8220874 7.2934536,13.932136 7.57341143,13.932136 C7.85336925,13.932136 8.13332708,13.8220874 8.33489671,13.6239999 L9.85786728,12.127339 L17.9654459,4.1598203 C18.1670155,3.96173282 18.2789986,3.68661132 18.2789986,3.41148982 L18.2789986,3.41148982 Z"></path>
                </g>
            </g>
        </g>
    </g>
</svg>