<?xml version="1.0" encoding="utf-8"?>
<!-- Generator: Adobe Illustrator 19.0.0, SVG Export Plug-In . SVG Version: 6.00 Build 0)  -->
<svg version="1.1" id="Layer_1" xmlns:sketch="http://www.bohemiancoding.com/sketch/ns"
	 xmlns="http://www.w3.org/2000/svg" xmlns:xlink="http://www.w3.org/1999/xlink" x="0px" y="0px" width="248px" height="37px"
	 viewBox="-181 378 248 37" style="enable-background:new -181 378 248 37;" xml:space="preserve">
<style type="text/css">
	.st0{fill:#007EE5;}
</style>
<title>Imported Layers</title>
<desc>Created with Sketch.</desc>
<g id="XMLID_142_">
	<g id="XMLID_143_">
		<g id="XMLID_150_">
			<path id="XMLID_167_" class="st0" d="M-142.8,386.2h6.5c5.6,0,9.1,3.6,9.1,9.3c0,5.6-3.5,9.3-9.1,9.3h-6.5V386.2z M-136.4,401.3
				c3.5,0,5.5-2.3,5.5-5.8c0-3.6-1.9-5.9-5.5-5.9h-2.6v11.7L-136.4,401.3L-136.4,401.3z"/>
			<path id="XMLID_165_" class="st0" d="M-117.2,394.9c-0.5-0.3-1.2-0.5-1.9-0.5c-1.3,0-2.3,0.7-2.6,1.9v8.3h-3.7v-13.5h3.7v1.3
				c0.6-1,1.7-1.6,3-1.6c0.6,0,1.2,0.1,1.4,0.2L-117.2,394.9L-117.2,394.9z"/>
			<path id="XMLID_162_" class="st0" d="M-109.8,405c-3.9,0-6.6-2.9-6.6-7c0-4.2,2.7-7.1,6.6-7.1s6.6,2.9,6.6,7.1
				C-103.2,402.1-105.8,405-109.8,405z M-109.8,394.1c-1.9,0-2.9,1.6-2.9,3.9c0,2.2,1,3.9,2.9,3.9s2.9-1.6,2.9-3.9
				S-107.9,394.1-109.8,394.1z"/>
			<path id="XMLID_159_" class="st0" d="M-97.8,409.7h-3.7v-18.4h3.7v1.1c0.6-0.7,1.9-1.4,3.4-1.4c3.9,0,6.1,3.3,6.1,7.1
				c0,3.8-2.2,7-6.1,7c-1.4,0-2.8-0.7-3.4-1.4V409.7z M-97.8,400.2c0.5,0.9,1.4,1.6,2.5,1.6c2,0,3.2-1.6,3.2-3.8
				c0-2.2-1.2-3.8-3.2-3.8c-1.1,0-2.1,0.7-2.5,1.6V400.2z"/>
			<path id="XMLID_156_" class="st0" d="M-82.9,404.7h-3.8v-19.6h3.8v7.2c0.6-0.7,1.9-1.4,3.4-1.4c3.9,0,6.1,3.2,6.1,7.1
				s-2.2,7-6.1,7c-1.4,0-2.8-0.7-3.4-1.4V404.7z M-82.9,400.2c0.4,0.9,1.4,1.6,2.5,1.6c2,0,3.2-1.6,3.2-3.8c0-2.2-1.2-3.8-3.2-3.8
				c-1.1,0-2.1,0.7-2.5,1.6V400.2z"/>
			<path id="XMLID_153_" class="st0" d="M-65.5,405c-3.9,0-6.6-2.9-6.6-7c0-4.2,2.7-7.1,6.6-7.1s6.6,2.9,6.6,7.1S-61.6,405-65.5,405
				z M-65.5,394.1c-1.9,0-2.9,1.6-2.9,3.9c0,2.2,1,3.9,2.9,3.9s2.9-1.6,2.9-3.9C-62.6,395.8-63.6,394.1-65.5,394.1z"/>
			<path id="XMLID_151_" class="st0" d="M-50.5,397.7l4.9,7h-4.1l-2.9-4.2l-2.9,4.2h-3.9l4.9-6.9l-4.6-6.6h4.1l2.6,3.8l2.7-3.8h3.9
				L-50.5,397.7z"/>
		</g>
		<g id="XMLID_144_">
			<polygon id="XMLID_149_" class="st0" points="-171,380.1 -180.7,386.4 -174,391.8 -164.2,385.8 			"/>
			<polygon id="XMLID_148_" class="st0" points="-180.7,397.1 -171,403.5 -164.2,397.9 -174,391.8 			"/>
			<polygon id="XMLID_147_" class="st0" points="-164.2,397.9 -157.4,403.5 -147.6,397.2 -154.4,391.8 			"/>
			<polygon id="XMLID_146_" class="st0" points="-147.6,386.4 -157.4,380.1 -164.2,385.8 -154.4,391.8 			"/>
			<polygon id="XMLID_145_" class="st0" points="-164.2,399.1 -171,404.8 -173.9,402.8 -173.9,405 -164.2,410.8 -154.4,405 
				-154.4,402.8 -157.3,404.8 			"/>
		</g>
	</g>
</g>
<g id="XMLID_1_">
	<path id="XMLID_2_" class="st0" d="M-24.9,399.6c0,3.4-2.4,5.3-6.2,5.3h-7.7v-18.6h7.1c3.9,0,6.3,1.7,6.3,5.1c0,2-1.1,3.5-2.5,3.9
		C-26.2,395.9-24.9,397.6-24.9,399.6z M-32,393.9c1.9,0,2.8-0.7,2.8-2.2s-1-2.2-2.8-2.2h-3.2v4.4L-32,393.9L-32,393.9z M-35.2,401.6
		h3.7c1.8,0,2.8-0.9,2.8-2.3c0-1.5-1-2.3-2.8-2.3h-3.7V401.6z"/>
	<path id="XMLID_6_" class="st0" d="M-10.4,404.9h-3.8v-1.2c-0.8,0.8-2.1,1.5-3.6,1.5c-3,0-4.8-2-4.8-5v-8.9h3.8v8.1
		c0,1.4,0.7,2.4,2.2,2.4c1.2,0,2.2-0.7,2.4-1.9v-8.6h3.8L-10.4,404.9z"/>
	<path id="XMLID_8_" class="st0" d="M-4.3,400.9c0.3,1,1.2,1.5,2.3,1.5c1.2,0,1.9-0.5,1.9-1.3c0-0.6-0.4-0.9-1.4-1.2l-2.7-0.6
		c-2.1-0.5-3.5-1.5-3.5-3.8c0-2.6,2.4-4.4,5.4-4.4c3.4,0,5.3,1.6,5.8,4.2h-3.6c-0.2-0.8-0.9-1.3-2.1-1.3c-0.9,0-1.8,0.4-1.8,1.3
		c0,0.5,0.4,0.8,1.2,1.1L0,397c2.4,0.6,3.6,1.9,3.6,3.9c0,2.8-2.4,4.4-5.6,4.4c-3.3,0-5.6-1.6-6-4.3h3.7V400.9z"/>
	<path id="XMLID_10_" class="st0" d="M7.9,389.6c-1.2,0-2.2-0.9-2.2-2.2c0-1.2,1-2.2,2.2-2.2s2.2,0.9,2.2,2.2S9.1,389.6,7.9,389.6z
		 M9.8,404.9H6v-13.6h3.8V404.9z"/>
	<path id="XMLID_13_" class="st0" d="M13.3,391.4h3.8v1.2c0.7-0.8,2.1-1.5,3.6-1.5c3.1,0,4.8,2,4.8,5v8.9h-3.8v-8.1
		c0-1.4-0.7-2.4-2.2-2.4c-1.2,0-2.2,0.7-2.5,1.9v8.6h-3.8v-13.6H13.3z"/>
	<path id="XMLID_15_" class="st0" d="M40.4,400.5c-0.5,2.9-2.6,4.7-6,4.7c-3.9,0-6.6-2.9-6.6-7.1c0-4.1,2.7-7.1,6.5-7.1
		c4,0,6.2,2.8,6.2,6.7v1.2h-9c0.1,2,1.3,3.2,2.9,3.2c1.3,0,2.2-0.5,2.5-1.7L40.4,400.5L40.4,400.5z M31.5,396.7h5.2
		c0-1.4-0.9-2.5-2.4-2.5C32.9,394.1,31.9,395,31.5,396.7z"/>
	<path id="XMLID_18_" class="st0" d="M45.9,400.9c0.3,1,1.2,1.5,2.3,1.5c1.2,0,1.9-0.5,1.9-1.3c0-0.6-0.4-0.9-1.4-1.2l-2.7-0.6
		c-2.1-0.5-3.5-1.5-3.5-3.8c0-2.6,2.4-4.4,5.4-4.4c3.4,0,5.3,1.6,5.8,4.2h-3.6c-0.2-0.8-0.9-1.3-2.1-1.3c-0.9,0-1.8,0.4-1.8,1.3
		c0,0.5,0.4,0.8,1.2,1.1l2.8,0.6c2.4,0.6,3.6,1.9,3.6,3.9c0,2.8-2.4,4.4-5.6,4.4c-3.3,0-5.6-1.6-6-4.3h3.7V400.9z"/>
	<path id="XMLID_20_" class="st0" d="M59.1,400.9c0.3,1,1.2,1.5,2.3,1.5c1.2,0,1.9-0.5,1.9-1.3c0-0.6-0.4-0.9-1.4-1.2l-2.7-0.6
		c-2.1-0.5-3.5-1.5-3.5-3.8c0-2.6,2.4-4.4,5.4-4.4c3.4,0,5.3,1.6,5.8,4.2h-3.6c-0.2-0.8-0.9-1.3-2.1-1.3c-0.9,0-1.8,0.4-1.8,1.3
		c0,0.5,0.4,0.8,1.2,1.1l2.8,0.6c2.4,0.6,3.6,1.9,3.6,3.9c0,2.8-2.4,4.4-5.6,4.4c-3.3,0-5.6-1.6-6-4.3h3.7V400.9z"/>
</g>
</svg>
