<?xml version="1.0" encoding="utf-8"?>
<!-- Generator: Adobe Illustrator 19.0.0, SVG Export Plug-In . SVG Version: 6.00 Build 0)  -->
<svg version="1.1" id="Layer_1" xmlns="http://www.w3.org/2000/svg" xmlns:xlink="http://www.w3.org/1999/xlink" x="0px" y="0px"
	 viewBox="-499 361 200 120" style="enable-background:new -499 361 200 120;" xml:space="preserve">
<style type="text/css">
	.st0{opacity:0.15;}
	.st1{fill:#505A78;}
	.st2{fill:#FFFFFF;}
	.st3{fill:#F6F7F8;}
	.st4{opacity:0.1;}
	.st5{fill:#B2D8F7;}
	.st6{fill:#C2C5D0;}
	.st7{clip-path:url(#SVGID_2_);}
	.st8{fill:#92E3A5;}
</style>
<g>
	<g id="XMLID_28_" class="st0">
		<path id="XMLID_29_" class="st1" d="M-332.6,467.3h-134c-0.6,0-1-0.5-1-1.1v-0.5c0-0.6,0.5-1,1-1h134c0.6,0,1.1,0.5,1.1,1v0.5
			C-331.5,466.8-332,467.3-332.6,467.3z"/>
		<path id="XMLID_32_" class="st1" d="M-332.4,467.4l0.1,0l0.1,0l0,0h0l0,0c0.1,0,0.1,0,0.1-0.1c0.4-0.2,0.7-0.6,0.7-1
			c0-0.2,0-0.4,0-0.6c0-0.2-0.1-0.4-0.1-0.6c-0.2-0.4-0.6-0.6-1-0.6h-1.1c-2.9,0-5.8,0-8.4,0c-5.3,0-9.9,0-12.4,0
			c-9.2,0-18,0-26.5,0c-8.9,0-17.6,0-26.4,0c-8.5,0-17.3,0-26.5,0c-6.9,0-13.9-0.1-21-0.1c-3.5,0-7,0-10.5,0c-0.5,0-0.8,0-1.4,0
			c-0.6,0.1-1,0.5-1.2,1.1c0,0.3,0,0.5,0,0.7c0,0.3,0.1,0.6,0.2,0.8c0.2,0.2,0.4,0.4,0.7,0.5c0.1,0,0.3,0.1,0.4,0.1h0.3
			c1.8,0,3.5,0,5.3,0c7,0,14,0,21,0c7.1,0,13.6,0,20.6,0c6.7,0,15,0,22.9,0c7.9,0,15.8,0,22.5,0c4.5,0,14.9,0,25.3,0
			c5.3,0,11.3,0,15.8,0c0.1,0,0.3,0,0.4,0v-0.4c-0.1,0-0.2,0-0.4,0c-4.4,0-13.1,0-21,0c-13.5,0-26.7,0-29,0c-8.1,0-15.8,0-23.2,0
			c-7.9,0-15.5,0-23.2,0c-7.6,0-15.2,0-23.1,0c-3.7,0-7.5,0-11.3,0c-0.9,0-1.9,0-2.9,0c-0.4,0-0.7-0.3-0.8-0.7c0-0.2,0-0.5,0-0.7
			c0-0.2,0.1-0.4,0.2-0.5c0.1-0.1,0.3-0.2,0.5-0.2h0.7c0.5,0,1,0,1.5,0c1,0,2,0,3,0c8.3,0,16.7,0,25.1,0c8.3,0,16.7,0,25.1,0
			c8.4,0,16.7,0,25.1-0.1c8.4,0,16.7,0.1,25,0.1c4,0,10.2,0,21.4-0.1c1.7,0,3.5,0,5.3,0l1.3,0c0.2,0,0.5,0,0.6,0
			c0.2,0,0.3,0.1,0.5,0.2c0.3,0.2,0.3,0.6,0.2,1.1c0,0.3-0.2,0.7-0.6,0.8c-0.1,0-0.1,0.1-0.2,0.1v0.4
			C-332.5,467.4-332.5,467.4-332.4,467.4z"/>
	</g>
	<path class="st2" d="M-460.4,396.1h121.4c1.3,0,2.3,1,2.3,2.3v64.8c0,1.3-1,2.3-2.3,2.3h-121.4c-1.3,0-2.3-1-2.3-2.3v-64.8
		C-462.7,397.1-461.7,396.1-460.4,396.1z"/>
	<path class="st3" d="M-342.3,390.3c0-2.4-1.9-4.3-4.3-4.3H-409l0-6.7c0-1.6-1.3-2.9-2.8-2.9l-33.3-0.2c-1.6,0-2.8,1.2-2.9,2.8
		l-0.1,7h-9.9c-2.6,0-4.8,2.1-4.8,4.8v5.2h120.4L-342.3,390.3L-342.3,390.3z"/>
	<g id="XMLID_17_" class="st4">
		<rect id="XMLID_25_" x="-462.7" y="393.3" class="st1" width="120.4" height="2.5"/>
		<path id="XMLID_43_" class="st1" d="M-462.7,393.2c0.2,0.2,0.9,0.3,1.6,0.4c11.3,0,24.6,0.1,29.9,0.1c24,0,44.1,0.1,68,0.1
			c3.6,0,7.3,0,11,0c1.8,0,3.7,0,5.5,0l2.8,0h1c0,0,0,0,0,0v0.6v0.7h-0.6c-16,0-32.1,0-47.5,0c-11.4,0-27.2,0.1-38.6,0.1
			c-3.8,0-12.1,0-20.7,0.1c-2.2,0-4.3,0-6.5,0c-1.1,0-2.1,0-3.2,0c-0.5,0-1,0-1.5,0h-0.7c-0.1,0-0.2,0-0.2-0.1c0-0.4,0-0.8,0-1
			c0-1.1-0.8-1.5-0.8,0.1c0,0.1,0,0.3,0,0.4c0,0.1,0,0.2,0,0.3c0,0.2,0,0.5,0,0.8v0.2c0,0.1,0,0.1,0.1,0.1h0.4h0.7
			c0.6,0,1.2,0,1.8,0c4.8,0,10.4,0,15.8,0c10.8,0,20.7,0,22.6,0c28.5,0.1,50.2-0.1,78.4,0.1c0.4,0,0.8,0,1.3,0h0.3c0,0,0.1,0,0.1,0
			v-0.1V396v-0.7c0-0.3,0-0.5,0-0.8v-0.7v-0.6c0-0.2,0.1-0.5-0.2-0.4l-1.7,0l-2.6,0c-1.8,0-3.5,0-5.3,0c-3.5,0-7,0-10.6,0
			c-7.1,0-14.1,0-21.2,0c-14.1,0-28.3,0-42.2,0c-1.2,0-20.5,0.1-35.5,0.1C-462.1,392.9-462.9,393-462.7,393.2z"/>
	</g>
	<path id="XMLID_46_" class="st1" d="M-342,393.6c0.4-0.4,0.6-1.5,0.7-2.8l0-1.2c0-0.4,0-0.8,0-1.2c-0.1-0.9-0.6-1.8-1.4-2.3
		c-0.4-0.3-0.8-0.5-1.3-0.5c-0.2,0-0.5-0.1-0.7-0.1h-0.6c-0.8,0-1.6,0-2.4,0c-3.2,0-6.4,0-9.6,0c-6.4,0-12.7,0-18.6,0
		c-11.8,0-22,0-27.8,0c-0.8,0-1.6,0-2.5,0h-1.2h-0.6c-0.1,0-0.1,0-0.2-0.1c0,0-0.1-0.1-0.1-0.2c0,0,0-0.1,0-0.1v-0.3v-1.2
		c0-0.8,0-1.6,0-2.4V380v-0.6v-0.3l0-0.4c-0.1-1-0.6-1.9-1.5-2.5c-0.4-0.3-0.9-0.5-1.4-0.6c-0.2,0-0.5-0.1-0.7-0.1h-0.6h-2.4
		c-6.3,0-12.6,0-18.7,0c-3.1,0-6.1,0-9.2,0h-2.3c-0.2,0-0.4,0-0.6,0c-0.2,0-0.5,0.1-0.7,0.1c-0.5,0.1-0.9,0.4-1.2,0.7
		c-0.7,0.6-1.2,1.5-1.2,2.5c0,0.8,0,1.5,0,2.3v2.3v1.1v0.5c0,0.1,0,0.1-0.1,0.1c0,0-0.1,0.1-0.1,0.1c-0.1,0,0,0-0.3,0h-1.1h-2.3
		h-4.5h-2.3c-0.9,0-1.9,0.4-2.5,1c-0.7,0.7-1.1,1.6-1.1,2.5v2.3v4.5c0,3,0,6,0,9.1c0,6,0,12.1,0,18.3c0,12.3,0,24.8-0.1,37.9l0,2.4
		c0,0.2,0,0.5,0.1,0.8c0.1,0.3,0.2,0.6,0.3,0.8c0.3,0.5,0.7,0.9,1.3,1.2c0.3,0.1,0.6,0.2,0.9,0.2c0.3,0,0.5,0,0.7,0h1.2l2.4,0
		c3.3,0,6.5,0,9.8,0c6.6,0,13.1,0,19.7,0c13.2,0,26.4,0,39.7,0c13.2,0,26.4,0,39.5,0c1.6,0,3.3,0,4.9,0h2.4h1.2c0.2,0,0.3,0,0.7,0
		c0.3,0,0.6-0.1,0.9-0.2c0.6-0.2,1-0.7,1.4-1.2c0.2-0.3,0.3-0.6,0.3-0.9c0-0.1,0.1-0.3,0.1-0.5v-0.3v-2.4c0-1.6,0-3.2,0-4.9
		c0-6.5,0-12.9,0-19.3c0-6.2,0-13.1,0-20.2c0-3.6,0-7.2,0-10.9c0-1.8,0-3.7,0-5.5v-1.4c0-0.6-0.1-1.2-0.5-1.8
		c-0.6-1.1-1.9-1.8-3.1-1.8c-14.8,0-29.7,0.1-42.1,0.1c-8.2,0-26.4,0.1-45.3,0.1c-9.4,0-19.1,0-27.7,0.1c-0.9,0-1.7,0-2.3,0
		c-1.9,0-2.6,1.4,0.2,1.4c18.1,0,85,0,91.9,0c7.9,0,15.5,0,23,0h1.4h0.7h0.4c0.1,0,0.2,0,0.2,0c0.6,0.1,1.2,0.5,1.4,1.1
		c0.1,0.3,0.1,0.5,0.1,1.1v1.4c0,0.9,0,1.8,0,2.8c0,3.7,0,7.3,0,10.9c0,14.3,0,28.2,0,42.1v5.2v1.3v0.6v0.3c0,0.1,0,0.1,0,0.2
		c-0.1,0.5-0.6,0.9-1.1,1c-3.5,0-6.9,0-10.4,0c-7,0-14,0-21.1,0c-14.3,0-29-0.1-44.6-0.1c-7.8,0-15.5,0-23.4-0.1
		c-3.9,0-7.8,0-11.7,0l-5.9,0h-2.9h-1.5h-0.4c-0.1,0-0.1,0-0.2,0c-0.1,0-0.2-0.1-0.3-0.1c-0.2-0.1-0.3-0.3-0.4-0.6
		c0-0.1,0-0.1,0-0.2v-0.3v-0.7v-2.9v-5.9c0-3.9,0-7.9,0-11.8c0-7.9,0-15.7,0-23.6c0-7.9,0-15.7,0-23.6V389c0-0.6,0.3-1.3,0.9-1.6
		c0.3-0.2,0.6-0.2,0.9-0.3h1.4h5.9h2.9h0.2c0.1,0,0.2,0,0.4,0c0.2-0.1,0.5-0.1,0.7-0.3c0.4-0.3,0.7-0.7,0.8-1.1
		c0-0.1,0.1-0.2,0.1-0.4l0-0.2V385v-0.4v-0.7V381v-1.5v-0.4l0-0.3c0-0.2,0-0.3,0.1-0.5c0.2-0.6,0.8-1.1,1.4-1.2c0.2-0.1,0.8,0,1.3,0
		h1.5c3.9,0,7.8,0,11.7,0s7.8,0,11.7,0l5.8,0h1.5c0.3,0,0.4,0,0.6,0c0.2,0,0.3,0.1,0.4,0.1c0.6,0.2,1,0.8,1.1,1.5c0,0,0,0.1,0,0.2
		c0,0.2,0,0.4,0,0.6c0,0.5,0,1.1,0,1.8c0,0.7,0,1.6,0,2.6c0,0.2,0,0.5,0,0.8v0.2v0.1c0,0,0,0.1,0,0.2c0,0.3,0.1,0.5,0.2,0.8
		c0.2,0.5,0.7,0.9,1.3,1c0.1,0,0.3,0,0.4,0h0.2c0.1,0,0.3,0,0.5,0c4.8,0,11.4,0,18.9,0c7.5,0,15.9,0,24.5-0.1c4.3,0,8.7,0,13-0.1
		c2.1,0,4.2,0,6.4,0c0.8,0,1.4,0.5,1.7,1.2c0.1,0.2,0.1,0.4,0.1,0.5c0,0.1,0,0.2,0,0.3v0.4c0,0.5,0,1,0,1.6
		C-342.6,392.6-342.4,394-342,393.6z"/>
	<g id="XMLID_39_" class="st0">
		<circle id="XMLID_26_" class="st1" cx="-401" cy="433" r="24.1"/>
		<path id="XMLID_27_" class="st1" d="M-401,457.3c-6.4,0-12.5-2.5-17.1-7c-4.6-4.6-7.2-10.7-7.2-17.2c0-6.5,2.5-12.6,7-17.3
			c4.6-4.6,10.7-7.2,17.2-7.2c6.5,0,12.6,2.5,17.3,7c4.6,4.6,7.2,10.7,7.2,17.2c0,6.5-2.5,12.6-7,17.3c-4.6,4.6-10.7,7.2-17.2,7.2
			C-400.9,457.3-401,457.3-401,457.3z M-401,409.1c-0.1,0-0.1,0-0.2,0c-6.4,0-12.3,2.6-16.8,7.1s-6.9,10.5-6.9,16.9
			c0,6.4,2.6,12.3,7.1,16.8c4.5,4.4,10.4,6.9,16.7,6.9c0.1,0,0.1,0,0.2,0c6.4,0,12.3-2.6,16.8-7.1s6.9-10.5,6.9-16.9
			c0-6.4-2.6-12.3-7.1-16.8C-388.8,411.6-394.7,409.1-401,409.1z"/>
	</g>
	<g>
		<g id="XMLID_40_">
			<circle id="XMLID_41_" class="st5" cx="-400" cy="430.8" r="24.1"/>
			<path id="XMLID_42_" class="st1" d="M-400.5,406.3c-0.2,0-0.4,0-0.6,0c-0.8,0-1.6,0-2.4,0.2c-0.8,0.1-1.6,0.2-2.4,0.4
				c-0.8,0.2-1.5,0.3-2.2,0.6c-0.7,0.3-1.4,0.5-2,0.8c-0.6,0.3-1.2,0.6-1.7,0.8c-1,0.6-1.9,1.1-2.5,1.5c-2.1,1.4-3.9,3.3-5.4,5.2
				c-1.6,1.9-2.7,4.1-3.6,6.3c-0.9,2.3-1.4,4.8-1.5,7.2c-0.2,2.5,0.1,4.9,0.6,7.4c0.5,2.4,1.6,4.6,2.8,6.7c1.3,2.1,2.9,4,4.8,5.8
				c2.8,2.6,6.3,4.8,10.1,5.8c3.8,1,7.9,0.9,11.8,0.1c3.9-0.9,7.5-2.7,10.5-5.1c3.1-2.5,5.4-5.5,7-9.1c1.6-3.4,2.3-8.2,1.9-12.6
				c-0.5-4.4-2.2-8.6-4.3-11.7c-0.4-0.5-0.9-1.2-1.5-1.9c-0.7-0.7-1.4-1.6-2.4-2.4c-1.9-1.7-4.3-3.3-7-4.4c-2.8-1.2-6.1-1.7-8.6-1.7
				c-0.5,0-0.8,0-1.1,0l0,1.1c0.2,0,0.5,0,1,0.1c0.6,0,1.3,0,2.1,0.2c0.8,0.1,1.7,0.2,2.7,0.5c1.9,0.4,4,1.3,5.8,2.3
				c3.1,1.8,5.7,4.3,7.4,6.5c0.4,0.5,0.8,1.1,1.1,1.6c0.3,0.5,0.6,1,0.8,1.4c0.4,0.9,0.7,1.4,0.8,1.7c1.6,4,2.2,8.1,1.7,12
				c-0.1,0.5-0.1,1-0.2,1.5c-0.1,0.5-0.2,1-0.4,1.5c-0.2,1-0.6,2-1,2.9c-0.8,1.9-1.8,3.7-3,5.2c-2.4,3.3-5.6,5.8-9.4,7.6
				c-3.6,1.5-7.7,2.1-11.9,1.6c-2.2-0.3-4.3-0.9-6.3-1.7c-2-0.9-3.9-2-5.6-3.4c-1.7-1.4-3.2-3-4.4-4.8c-1.2-1.8-2.2-3.8-2.9-5.9
				c-0.7-2.1-1.2-4.2-1.3-6.4l-0.1-0.8l0-0.8c0-0.6,0-1.1,0-1.7c0.2-1.1,0.2-2.2,0.5-3.2c0.5-2.2,1.4-4.2,2.6-6
				c1.1-1.9,2.6-3.5,4.1-5c0.4-0.4,0.8-0.8,1.3-1.2c0.5-0.4,1.1-0.9,1.9-1.4c1.5-1,3.5-2.1,6.3-3c0.9-0.2,1.8-0.5,2.7-0.6
				c0.5-0.1,0.9-0.2,1.4-0.2l1.4-0.1c0.3-0.1,0.6-0.1,0.9-0.2l0-1.1L-400.5,406.3z"/>
		</g>
		<g id="XMLID_38_">
			<circle id="XMLID_21_" class="st2" cx="-400" cy="430.8" r="19.2"/>
			<path id="XMLID_22_" class="st1" d="M-400,450.5c-10.8,0-19.6-8.8-19.7-19.6c-0.1-10.9,8.7-19.8,19.6-19.8l0,0
				c10.9-0.1,19.8,8.7,19.8,19.6c0.1,10.9-8.7,19.8-19.6,19.8C-399.9,450.5-399.9,450.5-400,450.5z M-400.1,412.1
				c-10.3,0.1-18.6,8.5-18.6,18.8c0.1,10.3,8.4,18.6,18.7,18.6c0,0,0.1,0,0.1,0c10.3-0.1,18.6-8.5,18.6-18.8
				c-0.1-10.3-8.5-18.6-18.7-18.6C-400,412.1-400,412.1-400.1,412.1L-400.1,412.1z"/>
		</g>
		<g id="XMLID_20_" class="st0">
			<circle id="XMLID_1_" class="st1" cx="-400.4" cy="432.1" r="11.1"/>
			<path id="XMLID_15_" class="st1" d="M-400.4,443.5c-3,0-5.9-1.2-8-3.3c-2.2-2.1-3.4-5-3.4-8.1c0-3.1,1.1-5.9,3.3-8.1
				c2.1-2.2,5-3.4,8.1-3.4c0,0,0,0,0.1,0c3,0,5.9,1.2,8,3.3c2.2,2.1,3.4,5,3.4,8.1C-388.9,438.3-394,443.5-400.4,443.5
				C-400.3,443.5-400.3,443.5-400.4,443.5z M-400.4,421.3C-400.4,421.3-400.4,421.3-400.4,421.3c-2.9,0-5.6,1.2-7.6,3.2
				c-2,2-3.1,4.8-3.1,7.6c0,2.9,1.2,5.6,3.2,7.6c2,2,4.8,3.1,7.6,3.1c5.9,0,10.7-4.9,10.7-10.8c0-2.9-1.2-5.6-3.2-7.6
				C-394.8,422.4-397.5,421.3-400.4,421.3z"/>
		</g>
		<g>
			<g>
				<path id="XMLID_7_" class="st6" d="M-400,450.5c-10.8,0-19.6-8.8-19.7-19.6c-0.1-10.9,8.7-19.8,19.6-19.8l0,0
					c10.9-0.1,19.8,8.7,19.8,19.6c0.1,10.9-8.7,19.8-19.6,19.8C-399.9,450.5-399.9,450.5-400,450.5z M-400.1,412.1
					c-10.3,0.1-18.6,8.5-18.6,18.8c0.1,10.3,8.4,18.6,18.7,18.6c0,0,0.1,0,0.1,0c10.3-0.1,18.6-8.5,18.6-18.8
					c-0.1-10.3-8.5-18.6-18.7-18.6C-400,412.1-400,412.1-400.1,412.1L-400.1,412.1z"/>
			</g>
			<g>
				<defs>
					<path id="SVGID_1_" d="M-400,450.5c-10.8,0-19.6-8.8-19.7-19.6c-0.1-10.9,8.7-19.8,19.6-19.8l0,0c10.9-0.1,19.8,8.7,19.8,19.6
						c0.1,10.9-8.7,19.8-19.6,19.8C-399.9,450.5-399.9,450.5-400,450.5z M-400.1,412.1c-10.3,0.1-18.6,8.5-18.6,18.8
						c0.1,10.3,8.4,18.6,18.7,18.6c0,0,0.1,0,0.1,0c10.3-0.1,18.6-8.5,18.6-18.8c-0.1-10.3-8.5-18.6-18.7-18.6
						C-400,412.1-400,412.1-400.1,412.1L-400.1,412.1z"/>
				</defs>
				<clipPath id="SVGID_2_">
					<use xlink:href="#SVGID_1_"  style="overflow:visible;"/>
				</clipPath>
				<g class="st7">
					<g>
						<path id="XMLID_12_" class="st6" d="M-399.9,450.5c-7.7,0-15-4.5-18.2-12c-4.2-10,0.4-21.6,10.4-25.8l0,0
							c4.8-2.1,10.2-2.1,15.1-0.1c4.9,2,8.7,5.7,10.8,10.6s2.1,10.2,0.1,15.1c-2,4.9-5.7,8.7-10.6,10.8
							C-394.7,450-397.4,450.5-399.9,450.5z M-407.3,413.6c-9.5,4-13.9,15-9.9,24.5s15.1,13.9,24.5,9.9c4.6-2,8.2-5.6,10-10.2
							c1.9-4.6,1.8-9.7-0.1-14.3c-2-4.6-5.6-8.2-10.2-10C-397.6,411.6-402.7,411.6-407.3,413.6L-407.3,413.6z"/>
					</g>
				</g>
			</g>
		</g>
		<path id="XMLID_76_" class="st1" d="M-380.3,428.8c-0.4-3.5-1.7-6.9-3.5-9.3c-0.3-0.4-0.7-0.9-1.2-1.5c-0.5-0.6-1.1-1.3-1.9-1.9
			c-1.5-1.3-3.4-2.6-5.6-3.5c-2.2-0.9-4.9-1.4-6.8-1.4c-0.4,0-0.6,0-0.8,0l-0.3,0c-0.1,0-0.3,0-0.5,0c-0.6,0-1.3,0-1.9,0.2
			c-1.3,0.1-2.5,0.5-3.6,0.8c-0.6,0.2-1.1,0.4-1.6,0.6c-0.5,0.2-1,0.5-1.4,0.7c-0.8,0.5-1.5,0.9-2,1.2c-3.4,2.4-5.9,5.6-7.2,9.2
			c-0.7,1.9-1.1,3.8-1.2,5.8c-0.2,2,0.1,3.9,0.5,5.9c0.9,3.7,3,7.2,6.1,9.9c2.3,2.1,5,3.8,8.1,4.6c3.1,0.8,6.3,0.8,9.4,0.1
			c3.1-0.7,5.9-2.1,8.3-4.1c2.4-2,4.3-4.4,5.6-7.2C-380.5,436.1-379.9,432.3-380.3,428.8z M-386.5,443.8
			C-386.5,443.8-386.6,443.8-386.5,443.8c-0.2-0.3-0.5-0.4-0.6-0.7c-0.1-0.3-0.4-0.4-0.6-0.7c0,0-0.4-0.4-0.6-0.1
			c-0.2,0.3,0.1,0.5,0.1,0.6c0.1,0.2,0.3,0.3,0.4,0.6s0.3,0.4,0.5,0.6c0.1,0.1,0.2,0.2,0.3,0.2c-1,1-2.1,1.9-3.4,2.6
			c0,0,0-0.1,0-0.1c-0.1-0.3-0.3-0.4-0.4-0.7c-0.1-0.3-0.3-0.5-0.4-0.8c0,0-0.3-0.5-0.6-0.3c-0.3,0.2-0.1,0.5,0,0.6
			c0.1,0.2,0.2,0.4,0.3,0.6c0.1,0.2,0.2,0.5,0.3,0.7c0.1,0.1,0.2,0.2,0.3,0.3c-0.5,0.3-1.1,0.6-1.6,0.8c-0.8,0.3-1.5,0.6-2.3,0.8
			c0,0,0-0.1,0-0.1c0-0.3-0.2-0.5-0.2-0.8c0-0.3-0.1-0.6-0.2-0.9c0,0-0.2-0.6-0.5-0.4c-0.3,0.2-0.2,0.5-0.2,0.6
			c0,0.2,0.1,0.4,0.1,0.7c0,0.3,0.1,0.5,0.1,0.7c0,0.1,0.1,0.2,0.2,0.3c-1.4,0.3-2.8,0.5-4.2,0.5c0-0.3-0.1-0.5,0-0.8
			c0.1-0.3,0-0.6,0.1-0.9c0,0,0-0.6-0.4-0.6c-0.4,0.1-0.3,0.4-0.3,0.5c0,0.2,0,0.5-0.1,0.7s-0.1,0.5-0.1,0.8c0,0.1,0,0.2,0,0.3
			c-0.6,0-1.2-0.1-1.7-0.1c-0.8-0.1-1.6-0.3-2.4-0.5c0.1-0.2,0.1-0.5,0.2-0.7c0.2-0.3,0.2-0.6,0.3-0.9c0,0,0.1-0.6-0.2-0.6
			c-0.4,0-0.4,0.3-0.4,0.4c-0.1,0.2-0.1,0.4-0.2,0.7c-0.1,0.2-0.2,0.5-0.2,0.7c0,0.1,0,0.1,0,0.2c-0.7-0.2-1.3-0.4-2-0.7
			c-0.6-0.3-1.2-0.6-1.8-0.9c0.1-0.2,0.2-0.4,0.4-0.6c0.2-0.2,0.3-0.5,0.5-0.8c0,0,0.3-0.6,0-0.7c-0.3-0.1-0.5,0.2-0.5,0.3
			c-0.2,0.2-0.2,0.4-0.4,0.6c-0.2,0.2-0.3,0.4-0.4,0.6c0,0.1-0.1,0.1-0.1,0.2c-0.7-0.4-1.4-0.9-2.1-1.4c-0.4-0.4-0.8-0.7-1.2-1.1
			c0.2-0.2,0.3-0.4,0.6-0.5c0.3-0.1,0.4-0.4,0.7-0.6c0,0,0.4-0.4,0.1-0.6c-0.3-0.2-0.5,0.1-0.6,0.1c-0.2,0.2-0.3,0.3-0.6,0.5
			s-0.4,0.3-0.6,0.5c-0.1,0.1-0.1,0.1-0.1,0.2c-0.7-0.7-1.3-1.5-1.9-2.3c-0.2-0.3-0.4-0.7-0.7-1c0.2-0.1,0.4-0.3,0.6-0.3
			c0.3-0.1,0.5-0.3,0.8-0.4c0,0,0.5-0.3,0.3-0.6c-0.2-0.3-0.5-0.1-0.6,0c-0.2,0.1-0.4,0.2-0.7,0.3c-0.2,0.1-0.5,0.2-0.7,0.3
			c0,0-0.1,0.1-0.2,0.1c-0.5-1-1-2-1.3-3c-0.1-0.3-0.2-0.5-0.2-0.8c0.2-0.1,0.4-0.2,0.7-0.2c0.3,0,0.6-0.1,0.9-0.2
			c0,0,0.6-0.2,0.4-0.5c-0.2-0.3-0.5-0.2-0.6-0.2c-0.2,0-0.4,0.1-0.7,0.1c-0.3,0-0.5,0.1-0.7,0.1c-0.1,0-0.1,0-0.2,0.1
			c-0.3-1.2-0.6-2.4-0.6-3.7l0-0.5c0.3,0,0.5-0.1,0.8,0c0.3,0.1,0.6,0,0.9,0.1c0,0,0.6,0,0.5-0.4c-0.1-0.4-0.4-0.3-0.5-0.3
			c-0.2,0-0.5,0-0.7-0.1s-0.5-0.1-0.8-0.1c-0.1,0-0.2,0-0.3,0l0-0.2c0-0.4,0-0.9,0-1.3c0.1-0.9,0.2-1.8,0.4-2.6c0,0,0-0.1,0-0.1
			c0.2,0.1,0.4,0.1,0.5,0.2c0.2,0.1,0.5,0.2,0.7,0.2c0.1,0,0.3,0,0.4,0c0.1,0,0.4,0,0.5,0.1c0.1,0,0.3-0.5,0.1-0.6
			c-0.1,0-0.5-0.1-0.5-0.1c-0.3-0.1-0.5-0.1-0.8-0.2c-0.2-0.2-0.5-0.2-0.8-0.2c0.4-1.4,1-2.6,1.7-3.8c0.1,0.1,0.3,0.2,0.4,0.3
			c0.2,0.2,0.4,0.3,0.6,0.4c0.1,0.1,0.3,0.1,0.4,0.1c0.1,0,0.3,0.1,0.4,0.2c0.1,0.1,0.4-0.4,0.3-0.5c-0.1,0-0.4-0.2-0.4-0.3
			c-0.2-0.2-0.5-0.2-0.7-0.4c-0.2-0.2-0.4-0.3-0.6-0.4c0.7-1.2,1.6-2.2,2.6-3.2c0.1,0.1,0.2,0.2,0.2,0.3c0.1,0.2,0.3,0.4,0.5,0.6
			c0.1,0.1,0.2,0.2,0.3,0.2c0.1,0,0.3,0.2,0.4,0.3c0.1,0.1,0.5-0.3,0.4-0.4c-0.1-0.1-0.3-0.3-0.4-0.4c-0.2-0.2-0.4-0.3-0.6-0.6
			c-0.1-0.2-0.3-0.3-0.4-0.5l0,0c0.3-0.3,0.6-0.6,1.1-1c0.4-0.3,0.9-0.8,1.5-1.1c0.2-0.1,0.4-0.3,0.7-0.4c0.1,0.1,0.1,0.2,0.2,0.4
			c0.1,0.2,0.2,0.5,0.3,0.7c0.1,0.1,0.2,0.2,0.3,0.3c0.1,0.1,0.2,0.3,0.3,0.4c0.1,0.1,0.6-0.1,0.5-0.3c-0.1-0.1-0.2-0.4-0.2-0.5
			c-0.1-0.3-0.3-0.4-0.4-0.7c0-0.2-0.2-0.4-0.3-0.6c1-0.6,2.2-1.1,3.8-1.6c0,0,0.1,0,0.1,0c0,0.2,0.1,0.3,0.1,0.5
			c0,0.3,0.1,0.5,0.1,0.7c0,0.1,0.1,0.3,0.2,0.4c0,0.1,0.2,0.3,0.2,0.4c0,0.1,0.6,0,0.5-0.2c0-0.1-0.1-0.5-0.1-0.5
			c0-0.3-0.2-0.5-0.2-0.8c0-0.3-0.1-0.5-0.1-0.7c0.5-0.1,0.9-0.2,1.4-0.3c0.4-0.1,0.7-0.2,1.1-0.2l1.1-0.1c0.2,0,0.4-0.1,0.5-0.1
			c0,0.2,0,0.4-0.1,0.7c-0.1,0.2-0.1,0.5-0.1,0.8c0,0.1,0,0.3,0.1,0.4c0,0.1,0.1,0.3,0.1,0.4c0,0.1,0.6,0.2,0.6,0c0-0.1,0-0.5,0-0.5
			c0-0.3-0.1-0.5,0-0.8c0.1-0.3,0-0.6,0.1-0.9c0,0,0,0,0,0c0.1,0,0.1,0,0.2,0c0.9,0,2.4,0.2,3.9,0.6c-0.1,0.2-0.1,0.4-0.2,0.6
			c-0.1,0.2-0.2,0.5-0.2,0.7c0,0.1,0,0.3,0,0.4c0,0.1,0,0.4-0.1,0.5c0,0.1,0.5,0.3,0.6,0.1c0-0.1,0.1-0.5,0.1-0.5
			c0.1-0.3,0.1-0.5,0.2-0.8c0.2-0.3,0.2-0.6,0.3-0.9v0c1.3,0.4,2.7,0.9,3.9,1.6c0,0,0,0,0,0c-0.1,0.2-0.2,0.4-0.4,0.6
			c-0.2,0.2-0.3,0.4-0.4,0.6c-0.1,0.1-0.1,0.3-0.1,0.4c0,0.1-0.1,0.3-0.2,0.4c-0.1,0.1,0.4,0.4,0.5,0.3c0-0.1,0.2-0.4,0.3-0.5
			c0.2-0.2,0.2-0.5,0.5-0.7c0.2-0.2,0.3-0.5,0.5-0.8l0,0c1.2,0.8,2.4,1.7,3.3,2.6c-0.2,0.1-0.3,0.3-0.5,0.4
			c-0.2,0.1-0.4,0.3-0.6,0.5c-0.1,0.1-0.2,0.2-0.2,0.3c0,0.1-0.2,0.3-0.3,0.4c-0.1,0.1,0.3,0.5,0.4,0.4c0.1-0.1,0.3-0.3,0.4-0.4
			c0.2-0.2,0.3-0.4,0.6-0.6c0.3-0.1,0.4-0.4,0.7-0.6c0,0,0,0,0,0c0.6,0.6,1.1,1.2,1.5,1.8c0.4,0.4,0.6,0.9,0.9,1.3
			c0.1,0.1,0.1,0.2,0.2,0.3c-0.2,0.1-0.4,0.2-0.6,0.3c-0.2,0.1-0.5,0.2-0.7,0.3c-0.1,0.1-0.2,0.2-0.3,0.3c-0.1,0.1-0.3,0.2-0.4,0.3
			c-0.1,0.1,0.1,0.6,0.3,0.5c0.1,0,0.4-0.2,0.5-0.2c0.3-0.1,0.4-0.3,0.7-0.4c0.3-0.1,0.5-0.3,0.8-0.4l0,0c0,0.1,0.1,0.2,0.1,0.2
			c0.3,0.7,0.6,1.1,0.7,1.4c0.3,0.8,0.6,1.5,0.8,2.3c-0.2,0-0.4,0.1-0.6,0.1c-0.3,0-0.5,0.1-0.7,0.1c-0.1,0-0.3,0.1-0.4,0.2
			c-0.1,0-0.3,0.2-0.4,0.2c-0.1,0,0,0.6,0.2,0.5c0.1,0,0.5-0.1,0.5-0.1c0.3,0,0.5-0.2,0.8-0.2c0.3,0,0.6-0.1,0.9-0.2
			c0.3,1.4,0.5,2.8,0.6,4.2c-0.2,0-0.4,0-0.7-0.1c-0.2-0.1-0.5-0.1-0.8-0.1c-0.1,0-0.3,0-0.4,0.1c-0.1,0-0.4,0.1-0.4,0.1
			c-0.1,0-0.2,0.6,0,0.6c0.1,0,0.5,0,0.5,0c0.3,0,0.5-0.1,0.8,0c0.3,0.1,0.6,0,0.9,0c0,0.6-0.1,1.2-0.1,1.8
			c-0.1,0.8-0.2,1.6-0.4,2.4c0,0-0.1,0-0.1,0c-0.3-0.1-0.5-0.1-0.8-0.2c-0.3-0.2-0.6-0.2-0.9-0.3c0,0-0.6-0.1-0.6,0.2
			c0,0.4,0.3,0.4,0.4,0.4c0.2,0.1,0.4,0.1,0.7,0.2c0.2,0.1,0.5,0.2,0.7,0.2c0.1,0,0.3,0,0.4,0c-0.4,1.4-0.9,2.7-1.6,3.9c0,0,0,0,0,0
			c-0.2-0.2-0.5-0.2-0.7-0.5c-0.2-0.2-0.5-0.3-0.8-0.5c0,0-0.6-0.3-0.6,0c-0.1,0.4,0.2,0.5,0.3,0.5c0.2,0.2,0.4,0.2,0.6,0.4
			c0.2,0.2,0.4,0.3,0.6,0.4c0.1,0.1,0.2,0.1,0.3,0.1c-0.3,0.5-0.7,1-1,1.5C-385.5,442.6-386,443.2-386.5,443.8z"/>
		<g id="XMLID_5_">
			<polyline id="XMLID_6_" class="st8" points="-408.1,425.7 -409,420.6 -404.1,422.1 			"/>
			<path id="XMLID_8_" class="st1" d="M-404.2,422.1c-0.2-0.4-0.9-0.7-1.6-1c-0.4-0.1-0.9-0.3-1.5-0.5c-0.9-0.3-1.8-0.5-2.5-0.8
				c0.5,2.7,0.9,4.7,0.9,4.8c0.2,1.2,1.3,1.5,1-0.3c0-0.1-0.2-1.1-0.5-2.9c0,0,0,0,0,0c0,0,0,0,0,0c0.1,0,0.3,0.1,0.4,0.1
				c0.6,0.2,1.2,0.3,1.8,0.5C-404.9,422.3-404,422.4-404.2,422.1z"/>
		</g>
		<g>
			<g id="XMLID_2_">
				<circle id="XMLID_3_" class="st5" cx="-400" cy="430.8" r="10"/>
				<path id="XMLID_4_" class="st1" d="M-392.5,423.4c-0.1-0.1-0.3-0.3-0.4-0.4c-0.9-0.9-1.9-1.6-2.9-2c-0.9-0.5-1.8-0.7-2.3-0.8
					c-2.1-0.4-4.3-0.2-6.2,0.6c-2,0.8-3.6,2.2-4.8,4c-0.6,0.9-1,1.8-1.2,2.9c-0.3,1-0.4,2.1-0.4,3.2c0,1.6,0.2,3.4,0.9,4.9
					c0.8,1.5,2.1,2.7,3.4,3.7c1.4,1,3,1.6,4.6,1.9c1.7,0.3,3.3,0.3,4.9-0.2c0.8-0.2,1.6-0.6,2.4-1.1c0.8-0.5,1.6-1.1,2.2-1.8
					c1.3-1.4,2.2-3.1,2.6-4.6c0.2-0.5,0.3-1.4,0.4-2.4c0-1.1-0.1-2.3-0.5-3.5c-0.4-1.2-1.1-2.5-1.7-3.3c-0.3-0.3-0.6-0.6-0.8-0.8
					l-0.8,0.7c0.1,0.1,0.3,0.4,0.6,0.8c0.1,0.2,0.3,0.4,0.5,0.7c0.2,0.3,0.3,0.6,0.5,1c0.3,0.7,0.6,1.5,0.7,2.3
					c0.2,1.4,0.1,2.8-0.2,3.9c-0.3,1.1-0.7,1.8-0.8,2c-0.8,1.5-1.9,2.7-3.2,3.5c-1.4,0.9-3,1.4-4.5,1.5c-1.6,0.1-3.2-0.1-4.7-0.8
					c-1.4-0.7-2.6-1.8-3.5-3.2c-0.5-0.7-0.8-1.5-1.2-2.3c-0.3-0.8-0.5-1.7-0.5-2.5c-0.1-1.7,0.4-3.4,1.2-4.9
					c0.8-1.5,1.9-2.9,3.4-3.7c0.8-0.4,1.6-0.7,2.4-0.8c0.8-0.1,1.7-0.1,2.5-0.1c0.4,0,0.9,0,1.6,0.1s1.5,0.3,2.5,0.9
					c0.3,0.2,0.6,0.4,0.9,0.5c0.3,0.2,0.6,0.4,0.9,0.6c0.2,0.2,0.5,0.3,0.7,0.5l0.8-0.7C-392.3,423.6-392.4,423.5-392.5,423.4z"/>
			</g>
		</g>
	</g>
</g>
</svg>
