<?xml version="1.0" encoding="UTF-8" standalone="no"?>
<svg width="47px" height="47px" viewBox="0 0 47 47" version="1.1" xmlns="http://www.w3.org/2000/svg" xmlns:xlink="http://www.w3.org/1999/xlink">
    <!-- Generator: Sketch 42 (36781) - http://www.bohemiancoding.com/sketch -->
    <title>Social/twitter</title>
    <desc>Created with Sketch.</desc>
    <defs>
        <ellipse id="path-1" cx="23.5" cy="23.5" rx="23.5" ry="23.5"></ellipse>
        <mask id="mask-2" maskContentUnits="userSpaceOnUse" maskUnits="objectBoundingBox" x="0" y="0" width="47" height="47" fill="white">
            <use xlink:href="#path-1"></use>
        </mask>
    </defs>
    <g id="HighFidelity---Profession" stroke="none" stroke-width="1" fill="none" fill-rule="evenodd">
        <g id="Professional-Template-Mobile-Lawyer" transform="translate(-100.000000, -4456.000000)">
            <g id="Group-2" transform="translate(36.000000, 4456.000000)">
                <g id="Social/twitter" transform="translate(64.000000, 0.000000)">
                    <use id="Oval-27" stroke="#B7BCC0" mask="url(#mask-2)" stroke-width="2" fill="#FFFFFF" xlink:href="#path-1"></use>
                    <path d="M31.3971538,18.691634 C31.3971538,18.5520331 31.2821884,18.4288559 31.1343757,18.4288559 C31.0522575,18.4288559 30.4856423,18.6669985 30.3378296,18.7080576 C30.5349132,18.4781268 30.986563,17.7801225 30.986563,17.4844971 C30.986563,17.3448962 30.8715976,17.221719 30.7237849,17.221719 C30.6827258,17.221719 30.6334549,17.2381426 30.5923959,17.2627781 C30.0339924,17.5666153 29.5002244,17.8047579 28.8761265,17.9361469 C28.2602403,17.3448962 27.4226351,17 26.5603945,17 C24.7373715,17 23.2428211,18.4863386 23.2428211,20.3175734 C23.2428211,20.4489624 23.2510329,20.5885633 23.2756684,20.7199524 C21.469069,20.5639279 19.7527996,19.8084408 18.4060619,18.601304 C18.0775893,18.3056786 17.7983876,17.9854178 17.5027622,17.6569452 C17.4370677,17.5830389 17.379585,17.5584034 17.2810432,17.5584034 C17.1907132,17.5584034 17.1168069,17.624098 17.0757478,17.6897925 C16.7801225,18.1250187 16.624098,18.8312348 16.624098,19.356791 C16.624098,20.1204898 16.8868761,20.867765 17.379585,21.4590157 C17.2235605,21.4097448 16.9854178,21.2537203 16.845817,21.2537203 C16.6733689,21.2537203 16.5255562,21.3768976 16.5255562,21.5493457 C16.5255562,22.6989998 17.157866,23.7665358 18.1268602,24.3659984 C18.0529538,24.3577865 17.9872593,24.3331511 17.913353,24.3331511 C17.7737521,24.3331511 17.6587867,24.4563283 17.6587867,24.5877174 C17.6587867,24.6205646 17.6669985,24.6452001 17.6752103,24.6780473 C18.0365302,25.7866424 18.9398299,26.6242476 20.0730604,26.8870257 C19.1451253,27.4618527 18.0775893,27.7574781 16.9936297,27.7574781 C16.7472752,27.7574781 16.5009207,27.716419 16.2627781,27.716419 C16.1149654,27.716419 16,27.8395963 16,27.9791971 C16,28.0695271 16.0492709,28.1434334 16.1231772,28.2009161 C16.3366844,28.3569406 16.5994625,28.4883297 16.8376052,28.6115069 C18.1022247,29.2684521 19.514657,29.6133484 20.9435128,29.6133484 C24.5238643,29.6133484 27.5868715,27.6917836 29.0649982,24.4234811 C29.5987662,23.2491915 29.9108152,21.9599365 29.8861797,20.6706815 L29.8861797,20.3996916 C30.4445832,19.980889 30.986563,19.4389092 31.3560947,18.8394466 C31.3807301,18.7983876 31.3971538,18.7491167 31.3971538,18.691634 L31.3971538,18.691634 Z" id="twiiter-ico" fill="#878787"></path>
                </g>
            </g>
        </g>
    </g>
</svg>